<?xml version="1.0" encoding="UTF-8"?>
<svg version="1.1" xmlns="http://www.w3.org/2000/svg" width="500" height="500">
<path d="M0 0 C0.76828125 -0.02449219 1.5365625 -0.04898438 2.328125 -0.07421875 C5.96871793 -0.09311456 8.01754031 -0.02933437 11.1015625 2.0234375 C13.36140782 5.51171156 14.03853328 8.27768785 13.22314453 12.41308594 C12.60280709 14.71399244 11.91316835 16.98015486 11.1875 19.25 C10.69930216 20.78581601 10.22130171 22.32491339 9.75390625 23.8671875 C9.53806885 24.54120605 9.32223145 25.21522461 9.09985352 25.90966797 C8.49971846 28.56004936 8.49971846 28.56004936 8.70483398 32.06103516 C8.77026444 36.93902301 7.56345584 41.24716957 6.21875 45.90625 C5.97459351 46.78277222 5.73043701 47.65929443 5.47888184 48.56237793 C4.7038938 51.33606493 3.91471029 54.10547299 3.125 56.875 C2.59410569 58.76535947 2.0641482 60.6559823 1.53515625 62.546875 C0.24258479 67.15936638 -1.0627251 71.76807747 -2.375 76.375 C-3.035 76.375 -3.695 76.375 -4.375 76.375 C-4.354375 77.32375 -4.33375 78.2725 -4.3125 79.25 C-4.375 82.375 -4.375 82.375 -5.375 84.375 C-6.035 84.375 -6.695 84.375 -7.375 84.375 C-7.48199219 84.9525 -7.58898437 85.53 -7.69921875 86.125 C-9.367339 91.67897262 -14.21357668 96.4910049 -18.375 100.375 C-18.9628125 101.0246875 -19.550625 101.674375 -20.15625 102.34375 C-24.68142119 106.48651235 -31.03277248 108.21620491 -37.0625 108.625 C-37.825625 108.5425 -38.58875 108.46 -39.375 108.375 C-40.32524979 104.67958414 -40.32524979 102.07041586 -39.375 98.375 C-39.74625 99.3340625 -39.74625 99.3340625 -40.125 100.3125 C-41.375 102.375 -41.375 102.375 -43.4375 102.9375 C-44.3965625 103.1540625 -44.3965625 103.1540625 -45.375 103.375 C-45.87 104.86 -45.87 104.86 -46.375 106.375 C-49.46436055 108.47037123 -52.09360811 108.63178837 -55.7668457 108.6496582 C-56.84509109 108.65919022 -57.92333649 108.66872223 -59.03425598 108.67854309 C-60.19470932 108.67763168 -61.35516266 108.67672028 -62.55078125 108.67578125 C-63.74930222 108.68006638 -64.94782318 108.6843515 -66.18266296 108.68876648 C-68.71869271 108.69450982 -71.25473894 108.69501002 -73.79077148 108.69067383 C-77.66223458 108.68752058 -81.53292863 108.71095099 -85.40429688 108.73632812 C-87.8697907 108.73860184 -90.33528658 108.73930428 -92.80078125 108.73828125 C-93.9551619 108.747491 -95.10954254 108.75670074 -96.29890442 108.76618958 C-105.05465299 108.71604925 -110.0755358 107.6744642 -116.375 101.375 C-121.64093279 95.42959201 -123.78844993 90.291494 -123.68261719 82.47631836 C-123.1015441 76.61808702 -121.39804473 71.02013181 -119.74951172 65.38818359 C-119.12539226 63.25134301 -118.5241875 61.10901028 -117.92578125 58.96484375 C-115.61938981 50.83343237 -113.10605949 43.47158923 -108.375 36.375 C-108.08625 35.715 -107.7975 35.055 -107.5 34.375 C-106.12736006 31.93475122 -104.79452825 30.76806172 -102.375 29.375 C-101.385 29.705 -100.395 30.035 -99.375 30.375 C-97.47746298 29.61836152 -95.58004625 28.86141898 -93.68344116 28.10244751 C-89.55937436 26.80285098 -85.43387367 26.96809088 -81.14453125 27.01171875 C-80.19108322 27.01122025 -79.23763519 27.01072174 -78.2552948 27.01020813 C-76.25261333 27.01253598 -74.24992822 27.02218777 -72.24731445 27.03881836 C-69.18609473 27.06251088 -66.12574193 27.05935682 -63.06445312 27.05273438 C-61.11197399 27.0583088 -59.1594985 27.06541719 -57.20703125 27.07421875 C-56.29548782 27.07330734 -55.3839444 27.07239594 -54.44477844 27.07145691 C-49.89920982 27.12215039 -46.56974589 27.45820234 -42.375 29.375 C-41.385 28.88 -41.385 28.88 -40.375 28.375 C-39.22275972 29.30461422 -38.07840824 30.2440125 -36.9375 31.1875 C-36.29941406 31.70957031 -35.66132813 32.23164063 -35.00390625 32.76953125 C-33.375 34.375 -33.375 34.375 -32.375 37.375 C-31.900625 37.7875 -31.42625 38.2 -30.9375 38.625 C-28.64643949 41.19098777 -28.247842 44.09523006 -27.375 47.375 C-27.05225098 46.16851807 -26.72950195 44.96203613 -26.39697266 43.71899414 C-25.20111401 39.25715747 -23.99475841 34.79821647 -22.78515625 30.34008789 C-22.26241359 28.40759799 -21.74254798 26.4743275 -21.22558594 24.5402832 C-20.48340951 21.76565235 -19.73104116 18.99396345 -18.9765625 16.22265625 C-18.7462735 15.35286636 -18.5159845 14.48307648 -18.27871704 13.58692932 C-17.70478425 11.49866543 -17.04761337 9.43360054 -16.375 7.375 C-15.715 7.045 -15.055 6.715 -14.375 6.375 C-14.045 5.715 -13.715 5.055 -13.375 4.375 C-12.385 3.715 -11.395 3.055 -10.375 2.375 C-7.36999688 -0.63000312 -4.02160893 0.00668041 0 0 Z M-7.375 1.375 C-7.375 1.705 -7.375 2.035 -7.375 2.375 C-2.095 2.375 3.185 2.375 8.625 2.375 C8.625 2.045 8.625 1.715 8.625 1.375 C3.345 1.375 -1.935 1.375 -7.375 1.375 Z M-16.375 11.375 C-15.375 14.375 -15.375 14.375 -15.375 14.375 Z M-17.375 15.375 C-16.375 17.375 -16.375 17.375 -16.375 17.375 Z M-18.375 19.375 C-17.375 21.375 -17.375 21.375 -17.375 21.375 Z M-19.375 22.375 C-18.375 25.375 -18.375 25.375 -18.375 25.375 Z M-20.375 26.375 C-19.375 29.375 -19.375 29.375 -19.375 29.375 Z M-21.375 29.375 C-20.375 32.375 -20.375 32.375 -20.375 32.375 Z M6.625 32.375 C7.625 35.375 7.625 35.375 7.625 35.375 Z M-22.375 33.375 C-21.375 36.375 -21.375 36.375 -21.375 36.375 Z M5.625 36.375 C6.625 39.375 6.625 39.375 6.625 39.375 Z M-23.375 37.375 C-22.375 40.375 -22.375 40.375 -22.375 40.375 Z M4.625 39.375 C5.625 42.375 5.625 42.375 5.625 42.375 Z M-31.375 41.375 C-30.375 43.375 -30.375 43.375 -30.375 43.375 Z M-24.375 41.375 C-23.375 44.375 -23.375 44.375 -23.375 44.375 Z M-30.375 43.375 C-30.375 47.335 -30.375 51.295 -30.375 55.375 C-30.045 55.375 -29.715 55.375 -29.375 55.375 C-29.375 51.415 -29.375 47.455 -29.375 43.375 C-29.705 43.375 -30.035 43.375 -30.375 43.375 Z M3.625 43.375 C4.625 46.375 4.625 46.375 4.625 46.375 Z M-25.375 44.375 C-24.375 47.375 -24.375 47.375 -24.375 47.375 Z M2.625 47.375 C3.625 50.375 3.625 50.375 3.625 50.375 Z M-26.375 48.375 C-25.375 51.375 -25.375 51.375 -25.375 51.375 Z M-27.375 51.375 C-26.375 55.375 -26.375 55.375 -26.375 55.375 Z M1.625 51.375 C2.625 53.375 2.625 53.375 2.625 53.375 Z M-87.43359375 54.22265625 C-90.17303464 58.67080273 -91.14661607 63.10593878 -92.1875 68.1875 C-92.40341797 69.16654297 -92.61933594 70.14558594 -92.84179688 71.15429688 C-93.36946657 73.5581255 -93.87986821 75.96429725 -94.375 78.375 C-89.3596631 79.73781341 -84.40435053 79.40234258 -79.26171875 79.25390625 C-78.29216751 79.23029526 -77.32261627 79.20668427 -76.32368469 79.18235779 C-73.2364647 79.10597556 -70.14951178 79.02184196 -67.0625 78.9375 C-64.96550772 78.88425384 -62.86850254 78.83151363 -60.77148438 78.77929688 C-55.63915479 78.65039489 -50.50705087 78.51454217 -45.375 78.375 C-45.375 78.045 -45.375 77.715 -45.375 77.375 C-60.225 77.375 -75.075 77.375 -90.375 77.375 C-86.375 64.375 -86.375 64.375 -82.375 60.375 C-80.08191037 59.22845518 -78.57590344 59.17770883 -76.0234375 59.05859375 C-75.17265625 59.01669922 -74.321875 58.97480469 -73.4453125 58.93164062 C-72.11113281 58.87266602 -72.11113281 58.87266602 -70.75 58.8125 C-69.8528125 58.76931641 -68.955625 58.72613281 -68.03125 58.68164062 C-65.81265717 58.57543139 -63.5939512 58.47338806 -61.375 58.375 C-60.99281233 56.71885343 -60.66104898 55.05042976 -60.375 53.375 C-62.86210887 50.88789113 -69.28914134 52.04437055 -72.625 52 C-73.67558594 51.96261719 -74.72617187 51.92523438 -75.80859375 51.88671875 C-80.41065609 51.83422374 -83.44173979 51.81122978 -87.43359375 54.22265625 Z M-59.375 53.375 C-58.375 56.375 -58.375 56.375 -58.375 56.375 Z M0.625 54.375 C1.625 57.375 1.625 57.375 1.625 57.375 Z M-31.375 55.375 C-30.375 59.375 -30.375 59.375 -30.375 59.375 Z M-28.375 55.375 C-27.375 58.375 -27.375 58.375 -27.375 58.375 Z M-32.375 59.375 C-31.375 63.375 -31.375 63.375 -31.375 63.375 Z M-29.375 59.375 C-28.375 62.375 -28.375 62.375 -28.375 62.375 Z M-0.375 59.375 C0.625 61.375 0.625 61.375 0.625 61.375 Z M-30.375 62.375 C-29.375 66.375 -29.375 66.375 -29.375 66.375 Z M-1.375 62.375 C-0.375 64.375 -0.375 64.375 -0.375 64.375 Z M-33.375 63.375 C-32.375 66.375 -32.375 66.375 -32.375 66.375 Z M-34.375 66.375 C-33.375 68.375 -33.375 68.375 -33.375 68.375 Z M-31.375 66.375 C-30.375 70.375 -30.375 70.375 -30.375 70.375 Z M-2.375 66.375 C-1.375 68.375 -1.375 68.375 -1.375 68.375 Z M-3.375 69.375 C-2.375 72.375 -2.375 72.375 -2.375 72.375 Z M-36.375 70.375 C-37.73863208 72.35446592 -39.06918644 74.3569245 -40.375 76.375 C-43.35150132 79.1106822 -45.31487673 79.75566851 -49.32714844 79.80737305 C-50.30786316 79.82716721 -51.28857788 79.84696136 -52.29901123 79.86735535 C-53.35018127 79.87374527 -54.40135132 79.88013519 -55.484375 79.88671875 C-56.56632141 79.90466995 -57.64826782 79.92262115 -58.76300049 79.94111633 C-62.21696074 79.99527636 -65.67078235 80.02913403 -69.125 80.0625 C-71.46746723 80.09566796 -73.80991616 80.13015713 -76.15234375 80.16601562 C-81.89310484 80.25100611 -87.63388375 80.31933199 -93.375 80.375 C-93.375 80.705 -93.375 81.035 -93.375 81.375 C-75.225 81.375 -57.075 81.375 -38.375 81.375 C-37.88 82.86 -37.88 82.86 -37.375 84.375 C-37.045 83.385 -36.715 82.395 -36.375 81.375 C-36.375 83.685 -36.375 85.995 -36.375 88.375 C-33.26737818 83.71356727 -31.95152091 78.90812271 -32.75 73.375 C-32.95625 72.385 -33.1625 71.395 -33.375 70.375 C-34.365 70.375 -35.355 70.375 -36.375 70.375 Z M-32.375 70.375 C-31.375 73.375 -31.375 73.375 -31.375 73.375 Z M-41.375 74.375 C-40.375 76.375 -40.375 76.375 -40.375 76.375 Z M-39.375 85.375 C-38.375 88.375 -38.375 88.375 -38.375 88.375 Z M-40.375 89.375 C-39.375 92.375 -39.375 92.375 -39.375 92.375 Z M-41.375 93.375 C-40.375 96.375 -40.375 96.375 -40.375 96.375 Z M-42.375 96.375 C-41.375 99.375 -41.375 99.375 -41.375 99.375 Z M-103.375 106.375 C-103.375 106.705 -103.375 107.035 -103.375 107.375 C-86.545 107.375 -69.715 107.375 -52.375 107.375 C-52.375 107.045 -52.375 106.715 -52.375 106.375 C-69.205 106.375 -86.035 106.375 -103.375 106.375 Z " fill="#F16C32" transform="translate(467.375,195.625)"/>
<path d="M0 0 C0.74652832 -0.00807175 1.49305664 -0.01614349 2.26220703 -0.02445984 C3.84584239 -0.0382886 5.4295074 -0.04901617 7.01318359 -0.05688477 C8.61516193 -0.06833899 10.21710412 -0.08868547 11.81884766 -0.1184082 C23.55323948 -0.33598187 34.66518715 -0.2337463 43.6875 8.42578125 C48.56184235 13.12936639 53.45894336 18.25934565 56.5 24.375 C57.40355878 26.41356879 57.40355878 26.41356879 59.4375 28.23828125 C59.78125 30.1484375 59.78125 30.1484375 59.9375 32.30078125 C60.1025 33.60015625 60.2675 34.89953125 60.4375 36.23828125 C61.0975 36.56828125 61.7575 36.89828125 62.4375 37.23828125 C62.4375 39.87828125 62.4375 42.51828125 62.4375 45.23828125 C61.7775 45.23828125 61.1175 45.23828125 60.4375 45.23828125 C60.251875 47.12546875 60.251875 47.12546875 60.0625 49.05078125 C59.73881941 52.34153388 59.37145001 53.33735623 57.4375 56.23828125 C56.67988121 57.62999403 55.93060575 59.02626543 55.1875 60.42578125 C48.47554348 72.55893342 48.47554348 72.55893342 43.4375 74.23828125 C42.9425 75.72328125 42.9425 75.72328125 42.4375 77.23828125 C41.633125 77.34140625 40.82875 77.44453125 40 77.55078125 C37.17966967 78.09505552 35.31654961 78.70121285 32.7421875 79.77734375 C25.73475513 82.15505676 18.29913355 81.48007529 11 81.30078125 C8.7985076 81.25290703 6.59728842 81.20966876 4.39549255 81.17857361 C2.41654328 81.14988897 0.43785191 81.10479996 -1.54077148 81.05883789 C-4.67633402 80.90948458 -4.67633402 80.90948458 -6.5625 83.23828125 C-9.38152173 87.46681384 -10.19538503 92.00295195 -11.46484375 96.890625 C-12.49004121 100.01729484 -13.45501444 101.778631 -15.5625 104.23828125 C-16.2225 105.22828125 -16.8825 106.21828125 -17.5625 107.23828125 C-20.50381891 108.21872089 -22.38751665 108.35449327 -25.44921875 108.3359375 C-26.38701172 108.33271484 -27.32480469 108.32949219 -28.29101562 108.32617188 C-29.75571289 108.31360352 -29.75571289 108.31360352 -31.25 108.30078125 C-32.23806641 108.29626953 -33.22613281 108.29175781 -34.24414062 108.28710938 C-36.68365474 108.27532428 -39.12304689 108.25887136 -41.5625 108.23828125 C-41.8925 107.24828125 -42.2225 106.25828125 -42.5625 105.23828125 C-43.2225 105.23828125 -43.8825 105.23828125 -44.5625 105.23828125 C-43.16945059 97.83053616 -41.44350377 90.53657588 -39.5625 83.23828125 C-38.9025 83.23828125 -38.2425 83.23828125 -37.5625 83.23828125 C-37.44132812 82.52800781 -37.32015625 81.81773437 -37.1953125 81.0859375 C-36.94394531 79.70728516 -36.94394531 79.70728516 -36.6875 78.30078125 C-36.52507812 77.38425781 -36.36265625 76.46773438 -36.1953125 75.5234375 C-35.88207031 74.39228516 -35.88207031 74.39228516 -35.5625 73.23828125 C-34.5725 72.74328125 -34.5725 72.74328125 -33.5625 72.23828125 C-32.84573386 70.02034912 -32.23922609 67.76662435 -31.6796875 65.50390625 C-31.50440018 64.80639252 -31.32911285 64.10887878 -31.14851379 63.39022827 C-30.76964915 61.88023893 -30.39430762 60.36936228 -30.02206421 58.85772705 C-29.03770802 54.86778274 -28.02207143 50.88576802 -27.01171875 46.90234375 C-26.8073671 46.09360809 -26.60301544 45.28487244 -26.39247131 44.45162964 C-24.40081758 36.57349328 -22.35905668 28.71079286 -20.25 20.86328125 C-19.93724121 19.65961914 -19.62448242 18.45595703 -19.30224609 17.21582031 C-18.84906006 15.54471191 -18.84906006 15.54471191 -18.38671875 13.83984375 C-18.12979248 12.87385254 -17.87286621 11.90786133 -17.6081543 10.91259766 C-16.05948198 6.95178596 -13.53965531 4.21543656 -10.5625 1.23828125 C-6.99661683 0.04965353 -3.71455975 0.03834482 0 0 Z M-6.5625 1.23828125 C-6.5625 1.56828125 -6.5625 1.89828125 -6.5625 2.23828125 C3.3375 2.23828125 13.2375 2.23828125 23.4375 2.23828125 C23.4375 1.90828125 23.4375 1.57828125 23.4375 1.23828125 C13.5375 1.23828125 3.6375 1.23828125 -6.5625 1.23828125 Z M57.4375 28.23828125 C58.4375 30.23828125 58.4375 30.23828125 58.4375 30.23828125 Z M6.4375 29.23828125 C6.4375 29.56828125 6.4375 29.89828125 6.4375 30.23828125 C11.7175 30.23828125 16.9975 30.23828125 22.4375 30.23828125 C22.4375 29.90828125 22.4375 29.57828125 22.4375 29.23828125 C17.1575 29.23828125 11.8775 29.23828125 6.4375 29.23828125 Z M5.4375 31.23828125 C4.23419806 35.48396951 3.05261643 39.73540363 1.875 43.98828125 C1.53275391 45.19484375 1.19050781 46.40140625 0.83789062 47.64453125 C0.51884766 48.8046875 0.19980469 49.96484375 -0.12890625 51.16015625 C-0.42740479 52.2284668 -0.72590332 53.29677734 -1.03344727 54.39746094 C-1.54783654 57.15954382 -1.51022713 58.63409191 -0.5625 61.23828125 C-0.2325 60.57828125 0.0975 59.91828125 0.4375 59.23828125 C1.0975 59.89828125 1.7575 60.55828125 2.4375 61.23828125 C2.499375 60.61953125 2.56125 60.00078125 2.625 59.36328125 C3.4375 57.23828125 3.4375 57.23828125 5.5546875 56.1328125 C9.97634852 54.76077947 14.36322905 54.83491063 18.96484375 54.6796875 C23.48343218 54.10533374 26.90430764 52.66573621 30.25 49.55078125 C31.96221361 46.21647054 32.58691778 42.95238029 32.4375 39.23828125 C31.14755207 35.81853206 31.14755207 35.81853206 29.4375 33.23828125 C28.4475 33.23828125 27.4575 33.23828125 26.4375 33.23828125 C25.89609375 32.91085938 25.3546875 32.5834375 24.796875 32.24609375 C21.15997418 30.69258313 17.59503553 31.02903919 13.6875 31.11328125 C12.49833984 31.12681641 12.49833984 31.12681641 11.28515625 31.140625 C9.33580719 31.16411113 7.38661425 31.19997988 5.4375 31.23828125 Z M58.4375 31.23828125 C59.4375 33.23828125 59.4375 33.23828125 59.4375 33.23828125 Z M59.4375 37.23828125 C59.4375 39.54828125 59.4375 41.85828125 59.4375 44.23828125 C59.7675 44.23828125 60.0975 44.23828125 60.4375 44.23828125 C60.4375 41.92828125 60.4375 39.61828125 60.4375 37.23828125 C60.1075 37.23828125 59.7775 37.23828125 59.4375 37.23828125 Z M58.4375 48.23828125 C59.4375 50.23828125 59.4375 50.23828125 59.4375 50.23828125 Z M-2.5625 61.23828125 C-3.26219682 63.48451824 -3.94685043 65.73544539 -4.625 67.98828125 C-5.00785156 69.24125 -5.39070313 70.49421875 -5.78515625 71.78515625 C-6.48906828 74.91208205 -6.72903785 76.33294171 -5.5625 79.23828125 C-4.86280318 76.99204426 -4.17814957 74.74111711 -3.5 72.48828125 C-3.11714844 71.2353125 -2.73429687 69.98234375 -2.33984375 68.69140625 C-1.63593172 65.56448045 -1.39596215 64.14362079 -2.5625 61.23828125 Z M0.4375 61.23828125 C1.4375 63.23828125 1.4375 63.23828125 1.4375 63.23828125 Z M-0.5625 64.23828125 C0.4375 67.23828125 0.4375 67.23828125 0.4375 67.23828125 Z M-1.5625 68.23828125 C-0.5625 71.23828125 -0.5625 71.23828125 -0.5625 71.23828125 Z M-2.5625 71.23828125 C-1.5625 74.23828125 -1.5625 74.23828125 -1.5625 74.23828125 Z M-3.5625 75.23828125 C-2.5625 78.23828125 -2.5625 78.23828125 -2.5625 78.23828125 Z M-35.5625 76.23828125 C-34.5625 79.23828125 -34.5625 79.23828125 -34.5625 79.23828125 Z M-36.5625 80.23828125 C-35.5625 82.23828125 -35.5625 82.23828125 -35.5625 82.23828125 Z M-37.5625 84.23828125 C-36.5625 87.23828125 -36.5625 87.23828125 -36.5625 87.23828125 Z M-39.5625 92.23828125 C-38.5625 94.23828125 -38.5625 94.23828125 -38.5625 94.23828125 Z M-40.5625 95.23828125 C-39.5625 98.23828125 -39.5625 98.23828125 -39.5625 98.23828125 Z M-41.5625 99.23828125 C-40.5625 102.23828125 -40.5625 102.23828125 -40.5625 102.23828125 Z " fill="#F16C32" transform="translate(113.5625,195.76171875)"/>
<path d="M0 0 C7.94557015 -0.0929886 15.89091009 -0.16390999 23.83689117 -0.20724869 C27.52719955 -0.2280571 31.21713358 -0.25624919 34.90722656 -0.30175781 C38.47342061 -0.34545943 42.03925631 -0.36918776 45.60569763 -0.37950897 C47.61750112 -0.39041494 49.62916196 -0.42160191 51.64074707 -0.45318604 C61.9555848 -0.45569785 68.25033763 1.84473613 75.96484375 8.76171875 C78.19356163 11.21288065 79.17727804 13.21365086 80.3125 16.3125 C80.65925781 17.21613281 81.00601563 18.11976563 81.36328125 19.05078125 C82.61436889 24.8456964 80.75608802 30.40057822 79.1875 36 C78.87167969 37.155 78.55585938 38.31 78.23046875 39.5 C77.12092161 42.65604521 75.70951478 45.20455361 73.99682617 48.05810547 C71.66071389 52.60903299 70.65557 57.77639258 69.37695312 62.70507812 C67.45448069 69.6249312 65.13609541 73.90926973 59 78 C58.34 78.66 57.68 79.32 57 80 C54.11275296 80.96499796 51.42037227 81.13952229 48.39013672 81.17700195 C47.02754227 81.19625481 47.02754227 81.19625481 45.63742065 81.21589661 C44.17334274 81.22697701 44.17334274 81.22697701 42.6796875 81.23828125 C41.66584991 81.246353 40.65201233 81.25442474 39.60745239 81.26274109 C37.46064962 81.27656463 35.31382503 81.28729451 33.16699219 81.29516602 C30.98300691 81.30666579 28.79904929 81.32708561 26.61523438 81.35668945 C23.44902567 81.39959916 20.2836518 81.41556947 17.1171875 81.42578125 C15.67132767 81.45204338 15.67132767 81.45204338 14.19625854 81.47883606 C7.38166523 81.4573367 2.13628044 79.93733268 -4 77 C-4 76.34 -4 75.68 -4 75 C-5.48409088 73.7797475 -6.96981723 72.56134939 -8.46875 71.359375 C-12.40163662 67.86793484 -13.74416755 63.6254281 -14.23828125 58.5546875 C-14.45468763 50.74127805 -13.39947861 44.07477007 -8.26953125 37.92578125 C-1.27350584 31.26489478 6.71343941 29.52271139 16.15625 29.671875 C16.98459351 29.67374817 17.81293701 29.67562134 18.66638184 29.67755127 C20.3974212 29.68421698 22.12844693 29.69802032 23.859375 29.71875 C26.52097412 29.75024821 29.18198189 29.75976207 31.84375 29.765625 C33.5312573 29.77478276 35.21875855 29.78515458 36.90625 29.796875 C37.70405884 29.80112488 38.50186768 29.80537476 39.32385254 29.80975342 C44.88274778 29.88274778 44.88274778 29.88274778 46 31 C46.66 29.02 47.32 27.04 48 25 C46.69853027 25.02618408 45.39706055 25.05236816 44.05615234 25.0793457 C39.21453124 25.17003873 34.37298481 25.22731909 29.53076172 25.2746582 C27.4375342 25.2997588 25.34439395 25.33384677 23.25146484 25.37719727 C20.23773641 25.43804451 17.22516941 25.4662545 14.2109375 25.48828125 C13.27945892 25.51408768 12.34798035 25.5398941 11.38827515 25.56648254 C6.95788051 25.56838287 3.94936846 25.44444795 0.42431641 22.59448242 C-2.66821303 19.28488421 -3.16812546 17.78257935 -3.25 13.375 C-3.28867188 12.14910156 -3.28867188 12.14910156 -3.328125 10.8984375 C-3.02414936 8.21331937 -2.44639762 6.31461248 -1.47949219 3.81884766 C-1.06627716 2.74432846 -1.06627716 2.74432846 -0.64471436 1.64810181 C-0.43195862 1.10422821 -0.21920288 0.56035461 0 0 Z M77 13 C78 15 78 15 78 15 Z M78 16 C79 18 79 18 79 18 Z M49 25 C49 26.65 49 28.3 49 30 C49.33 30 49.66 30 50 30 C50 28.35 50 26.7 50 25 C49.67 25 49.34 25 49 25 Z M78 27 C79 29 79 29 79 29 Z M48 30 C49 33 49 33 49 33 Z M77 30 C78 32 78 32 78 32 Z M47 33 C48 37 48 37 48 37 Z M44 34 C45 37 45 37 45 37 Z M76 34 C77 36 77 36 77 36 Z M46 37 C44.05320078 42.47621693 44.05320078 42.47621693 45 48 C46.94679922 42.52378307 46.94679922 42.52378307 46 37 Z M75 37 C76 40 76 40 76 40 Z M43 38 C44 41 44 41 44 41 Z M42 42 C43 44 43 44 43 44 Z M74 42 C75 44 75 44 75 44 Z M42 45 C40.30911778 46.97956942 38.64169528 48.97945196 37 51 C38.65 51 40.3 51 42 51 C42.33 49.02 42.66 47.04 43 45 C42.67 45 42.34 45 42 45 Z M43 48 C44 52 44 52 44 52 Z M17 50 C17 50.33 17 50.66 17 51 C22.94 51 28.88 51 35 51 C35 50.67 35 50.34 35 50 C29.06 50 23.12 50 17 50 Z M14 51 C15 53 15 53 15 53 Z M15 53 C15 53.33 15 53.66 15 54 C23.91 54 32.82 54 42 54 C42 53.67 42 53.34 42 53 C33.09 53 24.18 53 15 53 Z M47 79 C51 80 51 80 51 80 Z " fill="#F16A31" transform="translate(180,223)"/>
<path d="M0 0 C5.79831185 -0.07467117 11.59633806 -0.12884674 17.39501953 -0.16479492 C19.36381919 -0.17979561 21.33258593 -0.20020283 23.30126953 -0.22631836 C26.14624198 -0.26308815 28.99076913 -0.27981387 31.8359375 -0.29296875 C32.70302338 -0.30845261 33.57010925 -0.32393646 34.46347046 -0.33988953 C42.562723 -0.34207403 54.25043309 1.46632249 60.375 7.3125 C60.91125 7.869375 61.4475 8.42625 62 9 C62.61875 9.61875 63.2375 10.2375 63.875 10.875 C64.57625 11.57625 65.2775 12.2775 66 13 C66.825 13.7425 67.65 14.485 68.5 15.25 C73.47866151 20.72652766 75.37546019 26.48400934 76.60546875 33.703125 C76.93981228 35.97193485 76.93981228 35.97193485 77.63671875 37.98046875 C78.12364262 40.68734659 77.46248324 42.45400863 76.625 45.0625 C74.96121089 50.69963024 74.32832361 56.14678262 74 62 C73.01 60.68 72.02 59.36 71 58 C71.04125 59.0725 71.0825 60.145 71.125 61.25 C71.00607455 64.81776361 70.67847394 66.03798717 69 69 C68.62331656 70.65740715 68.27942455 72.32345271 68 74 C67.34 74 66.68 74 66 74 C65.814375 74.9590625 65.814375 74.9590625 65.625 75.9375 C65.41875 76.618125 65.2125 77.29875 65 78 C64.01 78.495 64.01 78.495 63 79 C62.34 79.66 61.68 80.32 61 81 C58.04147891 81.44360072 55.05051549 81.32412652 52.0625 81.3125 C51.23814453 81.32861328 50.41378906 81.34472656 49.56445312 81.36132812 C48.37432617 81.36229492 48.37432617 81.36229492 47.16015625 81.36328125 C46.43449463 81.36626221 45.70883301 81.36924316 44.96118164 81.37231445 C42.44922876 80.89544054 41.59186715 79.95828006 40 78 C37.7458381 73.49167619 39.70742807 66.99818658 41.0625 62.375 C41.97262641 59.09854492 42.04103579 56.40129269 41.9375 53.0234375 C42.02153724 50.30273183 42.8162391 47.83583952 43.5546875 45.23046875 C44.42456703 40.8734406 44.14631339 36.42191584 44 32 C42.68 31.34 41.36 30.68 40 30 C40 29.34 40 28.68 40 28 C33.73 27.67 27.46 27.34 21 27 C20.67 29.64 20.34 32.28 20 35 C19.67628481 36.51467097 19.31904034 38.02313814 18.90844727 39.51660156 C18.58790123 40.69757416 18.58790123 40.69757416 18.26087952 41.90240479 C17.91711525 43.13407379 17.91711525 43.13407379 17.56640625 44.390625 C17.32840805 45.25766052 17.09040985 46.12469604 16.84519958 47.01800537 C16.34440074 48.83729197 15.84086544 50.65582733 15.3347168 52.47363281 C14.5614241 55.2538682 13.79866641 58.03684239 13.03710938 60.8203125 C12.54749661 62.59392171 12.05728313 64.36736523 11.56640625 66.140625 C11.3392543 66.96983459 11.11210236 67.79904419 10.87806702 68.65338135 C10.6612175 69.42808777 10.44436798 70.20279419 10.22094727 71.00097656 C10.03299088 71.67856018 9.84503448 72.3561438 9.65138245 73.05426025 C7.84734078 78.44309993 7.84734078 78.44309993 5.13671875 80.22460938 C1.47069057 81.55496878 -2.13516629 81.45060915 -6 81.5 C-6.80695313 81.54125 -7.61390625 81.5825 -8.4453125 81.625 C-12.79015391 81.68235764 -14.39412978 81.584232 -17.625 78.46875 C-20.9349411 70.11867131 -16.24095605 59.90277378 -13.96484375 51.5625 C-13.56223853 50.07190421 -13.16011086 48.58117936 -12.75843811 47.09033203 C-11.70611724 43.18959926 -10.64736715 39.29064048 -9.58721924 35.39202881 C-8.5040895 31.40434092 -7.42711748 27.41499108 -6.34960938 23.42578125 C-4.23905929 15.61555791 -2.12170685 7.80719987 0 0 Z M72 24 C73 26 73 26 73 26 Z M73 27 C74 29 74 29 74 29 Z M74 31 C74 32.65 74 34.3 74 36 C74.33 36 74.66 36 75 36 C75 34.35 75 32.7 75 31 C74.67 31 74.34 31 74 31 Z M45 33 C46 35 46 35 46 35 Z M46 35 C46 37.97 46 40.94 46 44 C46.33 44 46.66 44 47 44 C47 41.03 47 38.06 47 35 C46.67 35 46.34 35 46 35 Z M74 41 C74 42.65 74 44.3 74 46 C74.33 46 74.66 46 75 46 C75 44.35 75 42.7 75 41 C74.67 41 74.34 41 74 41 Z M45 44 C46 48 46 48 46 48 Z M44 48 C45 51 45 51 45 51 Z M73 48 C74 50 74 50 74 50 Z M72 51 C73 54 73 54 73 54 Z M43 52 C44 55 44 55 44 55 Z M69 63 C70 65 70 65 70 65 Z M-14 79 C-14 79.33 -14 79.66 -14 80 C-8.72 80 -3.44 80 2 80 C2 79.67 2 79.34 2 79 C-3.28 79 -8.56 79 -14 79 Z M44 79 C44 79.33 44 79.66 44 80 C48.95 80 53.9 80 59 80 C59 79.67 59 79.34 59 79 C54.05 79 49.1 79 44 79 Z " fill="#F16B32" transform="translate(269,223)"/>
<path d="M0 0 C1.67966601 0.02011188 3.35935549 0.03835429 5.0390625 0.0546875 C9.10996612 0.09827539 13.17971629 0.16703718 17.25 0.25 C17.64772893 2.57322346 17.97833817 4.90868511 18.25 7.25 C16.92578125 8.78515625 16.92578125 8.78515625 15.25 10.25 C14.20832263 13.51108794 13.41155628 16.79456352 12.60546875 20.12109375 C10.82322586 24.23514723 9.29992296 25.34845604 5.25 27.25 C2.05738666 27.76066134 -1.08367109 27.81000284 -4.3125 27.8125 C-12.04781443 27.71247594 -12.04781443 27.71247594 -18.75 31.25 C-21.72149768 35.81337144 -22.48291108 39.90822159 -22.75 45.25 C-17.92447448 50.07552552 -10.98854684 49.61353667 -4.578125 49.90625 C-1.75 50.25 -1.75 50.25 0.25 52.25 C2.15693582 54.85949112 2.24843622 56.29144024 2.125 59.5625 C1.0414266 66.52644122 -0.57594017 74.90188035 -3.75 81.25 C-20.87037431 81.86633348 -20.87037431 81.86633348 -28.75 78.25 C-29.41 77.59 -30.07 76.93 -30.75 76.25 C-31.34425781 75.95738281 -31.93851563 75.66476562 -32.55078125 75.36328125 C-35.26519484 73.98919977 -37.53040006 72.29704692 -39.9375 70.4375 C-40.81792969 69.77105469 -41.69835938 69.10460937 -42.60546875 68.41796875 C-45.06716659 65.92936711 -45.30537404 64.64433966 -45.75 61.25 C-46.75097889 59.53864899 -47.75249667 57.82759655 -48.76171875 56.12109375 C-52.65556745 48.74894542 -52.89241933 39.77315346 -50.88671875 31.83203125 C-50.19624459 29.60995986 -49.4771116 27.39648331 -48.72265625 25.1953125 C-47.70221657 22.30698799 -47.70221657 22.30698799 -47.1953125 19.4609375 C-46.41581429 15.59079724 -43.70619524 14.21513499 -40.6875 11.8125 C-37.71490823 9.56486107 -37.71490823 9.56486107 -36.6875 7 C-36.378125 6.4225 -36.06875 5.845 -35.75 5.25 C-34.0883639 4.89243274 -32.42050129 4.56355114 -30.75 4.25 C-29.03328008 3.5757451 -27.31999099 2.89271901 -25.609375 2.203125 C-17.17683916 -0.65597513 -8.78760009 -0.18459881 0 0 Z M16.25 3.25 C17.25 6.25 17.25 6.25 17.25 6.25 Z M-23.75 35.25 C-22.75 37.25 -22.75 37.25 -22.75 37.25 Z M-24.75 38.25 C-23.75 42.25 -23.75 42.25 -23.75 42.25 Z M-13.75 51.25 C-13.75 51.58 -13.75 51.91 -13.75 52.25 C-9.79 52.25 -5.83 52.25 -1.75 52.25 C-1.75 51.92 -1.75 51.59 -1.75 51.25 C-5.71 51.25 -9.67 51.25 -13.75 51.25 Z " fill="#F16B31" transform="translate(70.75,222.75)"/>
<path d="M0 0 C20.46 0 40.92 0 62 0 C62 0.33 62 0.66 62 1 C41.54 1 21.08 1 0 1 C0 0.67 0 0.34 0 0 Z " fill="#B45206" transform="translate(180,221)"/>
<path d="M0 0 C0.5625 1.9375 0.5625 1.9375 1 4 C0 5 0 5 -2.59204102 5.11352539 C-3.71795654 5.10828857 -4.84387207 5.10305176 -6.00390625 5.09765625 C-7.21884766 5.09443359 -8.43378906 5.09121094 -9.68554688 5.08789062 C-10.96494141 5.07951172 -12.24433594 5.07113281 -13.5625 5.0625 C-14.84576172 5.05798828 -16.12902344 5.05347656 -17.45117188 5.04882812 C-20.63416022 5.03699545 -23.81705762 5.02051068 -27 5 C-26.67 4.01 -26.34 3.02 -26 2 C-22.60418484 1.9708456 -19.20840214 1.95314932 -15.8125 1.9375 C-14.37293945 1.92493164 -14.37293945 1.92493164 -12.90429688 1.91210938 C-11.97294922 1.90888672 -11.04160156 1.90566406 -10.08203125 1.90234375 C-8.80162964 1.89448853 -8.80162964 1.89448853 -7.49536133 1.88647461 C-4.90753253 2.00420677 -2.52338047 2.42892956 0 3 C0 2.01 0 1.02 0 0 Z " fill="#E15236" transform="translate(222,271)"/>
<path d="M0 0 C0.66 0.66 1.32 1.32 2 2 C-0.97 12.395 -0.97 12.395 -4 23 C-5.32 23.33 -6.64 23.66 -8 24 C-7.505 22.515 -7.505 22.515 -7 21 C-6.34 21.33 -5.68 21.66 -5 22 C-5.350625 21.505 -5.70125 21.01 -6.0625 20.5 C-7.46011601 16.77302397 -6.65032859 13.90197152 -6 10 C-5.34 10 -4.68 10 -4 10 C-4 9.34 -4 8.68 -4 8 C-3.01 8 -2.02 8 -1 8 C-1.33 6.68 -1.66 5.36 -2 4 C-1.34 4 -0.68 4 0 4 C0 2.68 0 1.36 0 0 Z M-3 9 C-2 11 -2 11 -2 11 Z M-4 12 C-3 15 -3 15 -3 15 Z M-5 17 C-4 19 -4 19 -4 19 Z " fill="#DF5C28" transform="translate(472,238)"/>
<path d="M0 0 C0.66 0 1.32 0 2 0 C2.33 0.66 2.66 1.32 3 2 C3.83144531 1.96519531 4.66289062 1.93039062 5.51953125 1.89453125 C7.14955078 1.85392578 7.14955078 1.85392578 8.8125 1.8125 C9.89144531 1.77769531 10.97039062 1.74289062 12.08203125 1.70703125 C15 2 15 2 16.88671875 3.51171875 C17.25410156 4.00285156 17.62148438 4.49398438 18 5 C14.58173253 6.70913373 10.76645237 6.18458479 7 6.1875 C6.16726563 6.19974609 5.33453125 6.21199219 4.4765625 6.22460938 C3.28160156 6.22750977 3.28160156 6.22750977 2.0625 6.23046875 C1.33160156 6.23457764 0.60070312 6.23868652 -0.15234375 6.24291992 C-2 6 -2 6 -4 4 C-2.68 3.67 -1.36 3.34 0 3 C0 2.01 0 1.02 0 0 Z M-1 4 C-1 4.33 -1 4.66 -1 5 C3.95 5 8.9 5 14 5 C14 4.67 14 4.34 14 4 C9.05 4 4.1 4 -1 4 Z " fill="#E46D28" transform="translate(314,298)"/>
<path d="M0 0 C14.52 0 29.04 0 44 0 C44 0.33 44 0.66 44 1 C29.48 1 14.96 1 0 1 C0 0.67 0 0.34 0 0 Z " fill="#F97914" transform="translate(376,221)"/>
<path d="M0 0 C13.86 0 27.72 0 42 0 C42 0.33 42 0.66 42 1 C28.14 1 14.28 1 0 1 C0 0.67 0 0.34 0 0 Z " fill="#F8740D" transform="translate(270,221)"/>
<path d="M0 0 C0.66 0 1.32 0 2 0 C3.49821059 3.37097383 4 5.20442119 4 9 C3.34 9 2.68 9 2 9 C1.34 10.32 0.68 11.64 0 13 C-1.44977894 10.65887549 -2.04314411 9.4203071 -1.7578125 6.640625 C-1.54898438 5.85171875 -1.34015625 5.0628125 -1.125 4.25 C-0.92132813 3.45078125 -0.71765625 2.6515625 -0.5078125 1.828125 C-0.34023437 1.22484375 -0.17265625 0.6215625 0 0 Z M0 9 C1 11 1 11 1 11 Z " fill="#D9571E" transform="translate(74,279)"/>
<path d="M0 0 C11.55 0 23.1 0 35 0 C35 0.33 35 0.66 35 1 C23.45 1 11.9 1 0 1 C0 0.67 0 0.34 0 0 Z " fill="#FC7815" transform="translate(52,221)"/>
<path d="M0 0 C2.97 0.495 2.97 0.495 6 1 C5.56802365 5.7517398 4.67230705 7.92000054 1 11 C1.03255208 9.01432292 1.06510417 7.02864583 1.09765625 5.04296875 C1.08263217 2.79694539 1.08263217 2.79694539 0 0 Z " fill="#EC703A" transform="translate(369,266)"/>
<path d="M0 0 C2.74953946 2.74953946 3.17042807 5.2350197 4 9 C3.625 11.9375 3.625 11.9375 3 14 C2.01 13.67 1.02 13.34 0 13 C-0.19466332 11.20909747 -0.38051213 9.41723495 -0.5625 7.625 C-0.66691406 6.62726563 -0.77132813 5.62953125 -0.87890625 4.6015625 C-1 2 -1 2 0 0 Z M0 3 C1 5 1 5 1 5 Z " fill="#E23C1F" transform="translate(258,236)"/>
<path d="M0 0 C10.23 0 20.46 0 31 0 C31 0.33 31 0.66 31 1 C20.77 1 10.54 1 0 1 C0 0.67 0 0.34 0 0 Z " fill="#C45A0C" transform="translate(110,278)"/>
<path d="M0 0 C0.99 0 1.98 0 3 0 C2.67 0.99 2.34 1.98 2 3 C3.32 3.33 4.64 3.66 6 4 C5.67 5.98 5.34 7.96 5 10 C1.32769295 6.92000054 0.43197635 4.7517398 0 0 Z " fill="#DE6628" transform="translate(250,294)"/>
<path d="M0 0 C0.33 0 0.66 0 1 0 C2.79172099 6.07806891 3.28545662 10.03241883 1 16 C0.34 15.67 -0.32 15.34 -1 15 C-0.67 10.05 -0.34 5.1 0 0 Z " fill="#EA4F26" transform="translate(344,254)"/>
<path d="M0 0 C2.31 0.33 4.62 0.66 7 1 C5.02 1.99 5.02 1.99 3 3 C2.67 2.67 2.34 2.34 2 2 C1.34 2.66 0.68 3.32 0 4 C-2.59269983 3.98252112 -5.0525154 3.86231408 -7.625 3.625 C-8.33140625 3.56828125 -9.0378125 3.5115625 -9.765625 3.453125 C-11.51121361 3.31159079 -13.25573673 3.15702613 -15 3 C-15 2.67 -15 2.34 -15 2 C-10.05 2 -5.1 2 0 2 C0 1.34 0 0.68 0 0 Z " fill="#DA5722" transform="translate(137,196)"/>
<path d="M0 0 C0 0.66 0 1.32 0 2 C3.96 2 7.92 2 12 2 C12 2.33 12 2.66 12 3 C9.58303128 3.05411124 7.16728213 3.09372278 4.75 3.125 C4.06808594 3.14175781 3.38617188 3.15851563 2.68359375 3.17578125 C-1.0608235 3.21213482 -3.82352727 3.07944349 -7 1 C-4 0 -4 0 0 0 Z " fill="#D06327" transform="translate(55,301)"/>
<path d="M0 0 C-0.25 1.875 -0.25 1.875 -1 4 C-2.31647119 4.69937532 -3.65022151 5.36729133 -5 6 C-5.33 6.99 -5.66 7.98 -6 9 C-6.66 8.67 -7.32 8.34 -8 8 C-8 7.01 -8 6.02 -8 5 C-2.65116279 0 -2.65116279 0 0 0 Z " fill="#E36123" transform="translate(162,264)"/>
<path d="M0 0 C1.56393356 3.97376829 0.36145292 6.81377903 -0.9375 10.75 C-1.31777344 11.92046875 -1.69804688 13.0909375 -2.08984375 14.296875 C-2.39019531 15.18890625 -2.69054687 16.0809375 -3 17 C-4.29065057 13.1280483 -3.22324098 10.55767399 -2.0625 6.8125 C-1.76956055 5.83120117 -1.76956055 5.83120117 -1.47070312 4.83007812 C-0.98817437 3.21772593 -0.49509795 1.60853711 0 0 Z " fill="#E16B28" transform="translate(106,279)"/>
<path d="M0 0 C2.375 0.25 2.375 0.25 5 1 C6.7941758 3.56310828 7 4.83119306 7 8 C5.8274869 7.04882866 4.66212985 6.08882991 3.5 5.125 C2.8503125 4.59132813 2.200625 4.05765625 1.53125 3.5078125 C1.0259375 3.01023437 0.520625 2.51265625 0 2 C0 1.34 0 0.68 0 0 Z " fill="#E0652C" transform="translate(26,287)"/>
<path d="M0 0 C0.99 0.495 0.99 0.495 2 1 C3.37634409 7.99641577 3.37634409 7.99641577 2.0625 11.5 C1.711875 11.995 1.36125 12.49 1 13 C-0.32229189 10.35541621 -0.09677194 8.32238699 -0.0625 5.375 C-0.05347656 4.37210938 -0.04445312 3.36921875 -0.03515625 2.3359375 C-0.02355469 1.56507813 -0.01195312 0.79421875 0 0 Z " fill="#C45A20" transform="translate(142,231)"/>
<path d="M0 0 C1.4540625 0.0309375 1.4540625 0.0309375 2.9375 0.0625 C2.9375 1.3825 2.9375 2.7025 2.9375 4.0625 C1.6175 4.0625 0.2975 4.0625 -1.0625 4.0625 C-1.0625 3.4025 -1.0625 2.7425 -1.0625 2.0625 C-2.0525 1.7325 -3.0425 1.4025 -4.0625 1.0625 C-3.0625 0.0625 -3.0625 0.0625 0 0 Z " fill="#EE6326" transform="translate(325.0625,227.9375)"/>
<path d="M0 0 C0.33 0 0.66 0 1 0 C1.33 5.61 1.66 11.22 2 17 C-0.11126943 12.77746115 -0.2171997 10.85998477 -0.125 6.25 C-0.09792969 4.49429687 -0.09792969 4.49429687 -0.0703125 2.703125 C-0.04710938 1.81109375 -0.02390625 0.9190625 0 0 Z " fill="#E65B19" transform="translate(17,257)"/>
<path d="M0 0 C0.66 0 1.32 0 2 0 C2.625 2.3125 2.625 2.3125 3 5 C2.01 6.485 2.01 6.485 1 8 C-1.125 3.375 -1.125 3.375 0 0 Z " fill="#E65D21" transform="translate(170,244)"/>
<path d="M0 0 C1.60080151 4.00200378 0.29279692 7.04556236 -1 11 C-2.60080151 6.99799622 -1.29279692 3.95443764 0 0 Z " fill="#E47723" transform="translate(480,210)"/>
<path d="M0 0 C0.33 0 0.66 0 1 0 C0.67 2.64 0.34 5.28 0 8 C-0.98120464 4.94736336 -0.98120464 3.05263664 0 0 Z " fill="#D68A37" transform="translate(482,202)"/>
<path d="M0 0 C0.625 1.8125 0.625 1.8125 1 4 C0.34 4.99 -0.32 5.98 -1 7 C-0.67 4.69 -0.34 2.38 0 0 Z " fill="#F67934" transform="translate(310,278)"/>
<path d="M0 0 C-2.31 0.33 -4.62 0.66 -7 1 C-3.375 -1.125 -3.375 -1.125 0 0 Z " fill="#D45626" transform="translate(148,277)"/>
<path d="M0 0 C0.625 1.8125 0.625 1.8125 1 4 C0.34 4.99 -0.32 5.98 -1 7 C-0.67 4.69 -0.34 2.38 0 0 Z " fill="#E14E22" transform="translate(351,242)"/>
<path d="M0 0 C0.625 1.8125 0.625 1.8125 1 4 C0.34 4.99 -0.32 5.98 -1 7 C-0.67 4.69 -0.34 2.38 0 0 Z " fill="#D36D31" transform="translate(477,221)"/>
<path d="M0 0 C0.33 0.99 0.66 1.98 1 3 C0.34 3.99 -0.32 4.98 -1 6 C-0.67 4.02 -0.34 2.04 0 0 Z " fill="#EF5F20" transform="translate(20,247)"/>
<path d="M0 0 C0.33 0 0.66 0 1 0 C1 1.98 1 3.96 1 6 C0.67 6 0.34 6 0 6 C0 4.02 0 2.04 0 0 Z " fill="#D99E2A" transform="translate(306,293)"/>
<path d="M0 0 C1.65 0 3.3 0 5 0 C5 0.33 5 0.66 5 1 C3.35 1 1.7 1 0 1 C0 0.67 0 0.34 0 0 Z " fill="#EBCA38" transform="translate(47,222)"/>
<path d="M0 0 C1 4 1 4 1 4 Z " fill="#E03F1E" transform="translate(307,289)"/>
<path d="M0 0 C1 4 1 4 1 4 Z " fill="#DC9348" transform="translate(308,285)"/>
<path d="M0 0 C0.99 0.495 0.99 0.495 2 1 C1.67 1.66 1.34 2.32 1 3 C0.67 2.01 0.34 1.02 0 0 Z " fill="#F75A1E" transform="translate(23,283)"/>
<path d="M0 0 C1 4 1 4 1 4 Z " fill="#F75818" transform="translate(433,269)"/>
<path d="M0 0 C1 4 1 4 1 4 Z " fill="#E7AC2F" transform="translate(347,256)"/>
<path d="M0 0 C1 4 1 4 1 4 Z " fill="#E35A37" transform="translate(18,253)"/>
<path d="M0 0 C1 4 1 4 1 4 Z " fill="#EB5006" transform="translate(349,249)"/>
<path d="M0 0 C1 4 1 4 1 4 Z " fill="#B45030" transform="translate(264,234)"/>
<path d="M0 0 C1 4 1 4 1 4 Z " fill="#E98D30" transform="translate(265,230)"/>
<path d="M0 0 C4 1 4 1 4 1 Z " fill="#D47D3D" transform="translate(420,222)"/>
<path d="M0 0 C4 1 4 1 4 1 Z " fill="#D1823A" transform="translate(372,222)"/>
<path d="M0 0 C4 1 4 1 4 1 Z " fill="#D27E38" transform="translate(312,222)"/>
<path d="" fill="#E8290F" transform="translate(0,0)"/>
<path d="" fill="#D4160A" transform="translate(0,0)"/>
<path d="" fill="#EA100A" transform="translate(0,0)"/>
<path d="" fill="#FE952F" transform="translate(0,0)"/>
<path d="" fill="#F75717" transform="translate(0,0)"/>
<path d="" fill="#C45B30" transform="translate(0,0)"/>
<path d="" fill="#DA852F" transform="translate(0,0)"/>
<path d="" fill="#F19A5F" transform="translate(0,0)"/>
<path d="" fill="#DF4F24" transform="translate(0,0)"/>
<path d="" fill="#E97B1A" transform="translate(0,0)"/>
<path d="" fill="#E39D2E" transform="translate(0,0)"/>
<path d="" fill="#D45928" transform="translate(0,0)"/>
<path d="" fill="#F99830" transform="translate(0,0)"/>
<path d="" fill="#D91207" transform="translate(0,0)"/>
<path d="M0 0 C3 1 3 1 3 1 Z " fill="#C14912" transform="translate(42,224)"/>
<path d="M0 0 C3 1 3 1 3 1 Z " fill="#ED7821" transform="translate(369,223)"/>
<path d="M0 0 C3 1 3 1 3 1 Z " fill="#F37623" transform="translate(316,223)"/>
<path d="M0 0 C3 1 3 1 3 1 Z " fill="#C56229" transform="translate(242,222)"/>
<path d="" fill="#E6A53B" transform="translate(0,0)"/>
<path d="" fill="#EB0D00" transform="translate(0,0)"/>
<path d="M0 0 C2 1 2 1 2 1 Z " fill="#CD7534" transform="translate(38,298)"/>
<path d="" fill="#D81914" transform="translate(0,0)"/>
<path d="" fill="#7E180D" transform="translate(0,0)"/>
<path d="" fill="#CF1A1A" transform="translate(0,0)"/>
<path d="" fill="#DB1608" transform="translate(0,0)"/>
<path d="" fill="#E8743C" transform="translate(0,0)"/>
<path d="" fill="#FA7E12" transform="translate(0,0)"/>
<path d="" fill="#C31C04" transform="translate(0,0)"/>
<path d="" fill="#FF693F" transform="translate(0,0)"/>
<path d="M0 0 C2 1 2 1 2 1 Z " fill="#DA6E47" transform="translate(148,275)"/>
<path d="M0 0 C2 1 2 1 2 1 Z " fill="#DC7660" transform="translate(150,274)"/>
<path d="M0 0 C2 1 2 1 2 1 Z " fill="#D84B20" transform="translate(152,273)"/>
<path d="" fill="#DB451D" transform="translate(0,0)"/>
<path d="" fill="#D90902" transform="translate(0,0)"/>
<path d="" fill="#DA5216" transform="translate(0,0)"/>
<path d="" fill="#C9160F" transform="translate(0,0)"/>
<path d="" fill="#DF8726" transform="translate(0,0)"/>
<path d="" fill="#DA4F15" transform="translate(0,0)"/>
<path d="" fill="#F40E0C" transform="translate(0,0)"/>
<path d="" fill="#E27524" transform="translate(0,0)"/>
<path d="" fill="#EB9866" transform="translate(0,0)"/>
<path d="" fill="#DB4310" transform="translate(0,0)"/>
<path d="" fill="#C5181A" transform="translate(0,0)"/>
<path d="" fill="#FAAA32" transform="translate(0,0)"/>
<path d="" fill="#EF0F08" transform="translate(0,0)"/>
<path d="" fill="#F03415" transform="translate(0,0)"/>
<path d="" fill="#DA7644" transform="translate(0,0)"/>
<path d="M0 0 C2 1 2 1 2 1 Z " fill="#D05D12" transform="translate(323,226)"/>
<path d="M0 0 C2 1 2 1 2 1 Z " fill="#C95E1E" transform="translate(38,226)"/>
<path d="M0 0 C2 1 2 1 2 1 Z " fill="#FFAD2E" transform="translate(321,225)"/>
<path d="M0 0 C2 1 2 1 2 1 Z " fill="#D64F32" transform="translate(40,225)"/>
<path d="M0 0 C2 1 2 1 2 1 Z " fill="#B14A0F" transform="translate(367,224)"/>
<path d="M0 0 C2 1 2 1 2 1 Z " fill="#DF6942" transform="translate(319,224)"/>
<path d="M0 0 C2 1 2 1 2 1 Z " fill="#CE8134" transform="translate(247,224)"/>
<path d="M0 0 C2 1 2 1 2 1 Z " fill="#D9430F" transform="translate(424,223)"/>
<path d="M0 0 C2 1 2 1 2 1 Z " fill="#F9AD1F" transform="translate(245,223)"/>
<path d="" fill="#B22221" transform="translate(0,0)"/>
<path d="M0 0 C2 1 2 1 2 1 Z " fill="#D56B38" transform="translate(45,223)"/>
<path d="" fill="#C71D11" transform="translate(0,0)"/>
<path d="" fill="#DC8829" transform="translate(0,0)"/>
<path d="" fill="#E40800" transform="translate(0,0)"/>
<path d="" fill="#DA1206" transform="translate(0,0)"/>
<path d="" fill="#D14A17" transform="translate(0,0)"/>
<path d="M0 0 C2 1 2 1 2 1 Z " fill="#E04D24" transform="translate(455,198)"/>
<path d="" fill="#E28B1F" transform="translate(0,0)"/>
<path d="" fill="#FFEC51" transform="translate(0,0)"/>
<path d="" fill="#FFED52" transform="translate(0,0)"/>
<path d="" fill="#D11400" transform="translate(0,0)"/>
<path d="" fill="#FF6E43" transform="translate(0,0)"/>
<path d="" fill="#B95F23" transform="translate(0,0)"/>
<path d="" fill="#FFC66B" transform="translate(0,0)"/>
<path d="" fill="#CF2304" transform="translate(0,0)"/>
<path d="" fill="#BC5C1A" transform="translate(0,0)"/>
<path d="" fill="#C92E03" transform="translate(0,0)"/>
<path d="" fill="#A53300" transform="translate(0,0)"/>
<path d="" fill="#EA0800" transform="translate(0,0)"/>
<path d="" fill="#E21600" transform="translate(0,0)"/>
<path d="" fill="#EC1907" transform="translate(0,0)"/>
<path d="" fill="#E28439" transform="translate(0,0)"/>
<path d="" fill="#722000" transform="translate(0,0)"/>
<path d="" fill="#5D0000" transform="translate(0,0)"/>
<path d="" fill="#DE7C19" transform="translate(0,0)"/>
<path d="" fill="#FFC771" transform="translate(0,0)"/>
<path d="" fill="#DC791D" transform="translate(0,0)"/>
<path d="" fill="#D21A14" transform="translate(0,0)"/>
<path d="" fill="#A82A00" transform="translate(0,0)"/>
<path d="" fill="#FFBE7F" transform="translate(0,0)"/>
<path d="" fill="#FF7F58" transform="translate(0,0)"/>
<path d="" fill="#E12021" transform="translate(0,0)"/>
<path d="" fill="#BB1504" transform="translate(0,0)"/>
<path d="" fill="#D01F0B" transform="translate(0,0)"/>
<path d="" fill="#BB1000" transform="translate(0,0)"/>
<path d="" fill="#FF7741" transform="translate(0,0)"/>
<path d="" fill="#FFD469" transform="translate(0,0)"/>
<path d="" fill="#FF821C" transform="translate(0,0)"/>
<path d="" fill="#CF4A00" transform="translate(0,0)"/>
<path d="" fill="#F67538" transform="translate(0,0)"/>
<path d="" fill="#FE7C1A" transform="translate(0,0)"/>
<path d="" fill="#FF7313" transform="translate(0,0)"/>
<path d="" fill="#C12E00" transform="translate(0,0)"/>
<path d="" fill="#CD230F" transform="translate(0,0)"/>
<path d="" fill="#FFC099" transform="translate(0,0)"/>
<path d="" fill="#D51910" transform="translate(0,0)"/>
<path d="" fill="#D11909" transform="translate(0,0)"/>
<path d="" fill="#DB221A" transform="translate(0,0)"/>
<path d="" fill="#E45E3E" transform="translate(0,0)"/>
<path d="" fill="#B62400" transform="translate(0,0)"/>
<path d="" fill="#E46324" transform="translate(0,0)"/>
<path d="" fill="#F08736" transform="translate(0,0)"/>
<path d="" fill="#CE7300" transform="translate(0,0)"/>
<path d="" fill="#FF9F48" transform="translate(0,0)"/>
<path d="" fill="#FF9B1F" transform="translate(0,0)"/>
<path d="" fill="#C66E11" transform="translate(0,0)"/>
<path d="" fill="#CB5E18" transform="translate(0,0)"/>
<path d="" fill="#CD781A" transform="translate(0,0)"/>
<path d="" fill="#EC7C50" transform="translate(0,0)"/>
<path d="" fill="#ED8644" transform="translate(0,0)"/>
<path d="" fill="#F07E3C" transform="translate(0,0)"/>
<path d="" fill="#FF7917" transform="translate(0,0)"/>
<path d="" fill="#FFC77C" transform="translate(0,0)"/>
<path d="" fill="#A53400" transform="translate(0,0)"/>
<path d="" fill="#F6773B" transform="translate(0,0)"/>
<path d="" fill="#FFCF78" transform="translate(0,0)"/>
<path d="" fill="#FA800E" transform="translate(0,0)"/>
<path d="" fill="#B13E00" transform="translate(0,0)"/>
<path d="" fill="#FFC77A" transform="translate(0,0)"/>
<path d="" fill="#CE1F0D" transform="translate(0,0)"/>
<path d="" fill="#FFBC75" transform="translate(0,0)"/>
<path d="" fill="#FFBD8D" transform="translate(0,0)"/>
<path d="" fill="#A52C00" transform="translate(0,0)"/>
<path d="" fill="#CD1A06" transform="translate(0,0)"/>
<path d="" fill="#D21C0C" transform="translate(0,0)"/>
<path d="" fill="#DE1500" transform="translate(0,0)"/>
<path d="" fill="#D67838" transform="translate(0,0)"/>
</svg>
