<?xml version="1.0" encoding="UTF-8"?>
<svg version="1.1" xmlns="http://www.w3.org/2000/svg" width="500" height="250">
<path d="M0 0 C165 0 330 0 500 0 C500 82.5 500 165 500 250 C335 250 170 250 0 250 C0 167.5 0 85 0 0 Z " fill="#003953" transform="translate(0,0)"/>
<path d="M0 0 C3.02941215 1.35490969 5.10937872 2.86766966 7.43579102 5.22460938 C8.08649063 5.87868774 8.73719025 6.53276611 9.40760803 7.20666504 C10.09938644 7.91190308 10.79116486 8.61714111 11.50390625 9.34375 C12.22360092 10.06864624 12.94329559 10.79354248 13.68479919 11.54040527 C15.98216539 13.85557351 18.27273547 16.17731514 20.5625 18.5 C22.85668736 20.8218108 25.15231545 23.14214921 27.45091248 25.45959473 C28.8804968 26.90142802 30.30739941 28.34592622 31.7313385 29.79333496 C32.70265968 30.77445251 32.70265968 30.77445251 33.69360352 31.77539062 C34.54487572 32.63904236 34.54487572 32.63904236 35.41334534 33.5201416 C37.13857169 35.20928557 37.13857169 35.20928557 40 37 C40 37.66 40 38.32 40 39 C41.32 39.66 42.64 40.32 44 41 C42.69610877 48.4437335 35.44896212 53.62523361 29.97265625 58.2890625 C24.83346958 62.74641649 20.34060128 67.72020124 15.91015625 72.8671875 C12.44077327 76.74097708 8.71366411 80.36212495 5 84 C1.58943731 82.86314577 0.80065835 81.84668031 -1.4375 79.125 C-3.75795299 76.31138586 -6.00589673 74.09258206 -9 72 C-8.40712728 68.4973704 -7.12486634 66.66969023 -4.75 64.0625 C-3.87601562 63.08990234 -3.87601562 63.08990234 -2.984375 62.09765625 C-0.70105432 59.68398852 1.64209385 57.34099147 4 55 C5.18401618 53.81682883 6.36757998 52.63320485 7.55078125 51.44921875 C11.03385417 47.96614583 14.51692708 44.48307292 18 41 C13.57414178 35.65142488 13.57414178 35.65142488 8.5 30.9375 C4.33926703 27.37115746 0.36952336 23.62728863 -3.5625 19.8125 C-4.20703125 19.20591553 -4.8515625 18.59933105 -5.515625 17.97436523 C-6.10988281 17.39114502 -6.70414062 16.8079248 -7.31640625 16.20703125 C-7.85724854 15.6860083 -8.39809082 15.16498535 -8.95532227 14.62817383 C-10 13 -10 13 -9.796875 10.94702148 C-8.61900278 8.06910146 -6.66923169 6.38743316 -4.4375 4.25 C-3.61121094 3.45078125 -2.78492187 2.6515625 -1.93359375 1.828125 C-1.29550781 1.22484375 -0.65742187 0.6215625 0 0 Z " fill="#33B4E6" transform="translate(93,83)"/>
<path d="M0 0 C3.50625 -0.061875 7.0125 -0.12375 10.625 -0.1875 C11.71893066 -0.21481201 12.81286133 -0.24212402 13.93994141 -0.27026367 C19.35641752 -0.31646916 23.37209282 -0.17495958 28 3 C30.05592456 7.11184913 29.22909008 12.41834288 29.25 16.9375 C29.270625 18.04802734 29.29125 19.15855469 29.3125 20.30273438 C29.31765625 21.36685547 29.3228125 22.43097656 29.328125 23.52734375 C29.34214355 24.99288696 29.34214355 24.99288696 29.35644531 26.48803711 C29 29 29 29 27.72949219 30.77954102 C24.2975723 33.20136026 20.89261129 33.12146867 16.796875 33.09765625 C15.91354492 33.09515869 15.03021484 33.09266113 14.12011719 33.09008789 C13.00797852 33.08098389 11.89583984 33.07187988 10.75 33.0625 C7.2025 33.041875 3.655 33.02125 0 33 C0 22.11 0 11.22 0 0 Z " fill="#F3F7F9" transform="translate(154,95)"/>
<path d="M0 0 C1.66582578 1.42785067 3.33145523 2.85592116 4.99609375 4.28515625 C6.27624389 5.38064535 7.55977737 6.47220121 8.84765625 7.55859375 C12.39856807 10.56321144 15.75144244 13.66364359 19 17 C19.78375 17.680625 20.5675 18.36125 21.375 19.0625 C21.91125 19.701875 22.4475 20.34125 23 21 C22.61966723 24.34001324 21.24032686 26.2580123 19.0625 28.75 C18.53785156 29.36359375 18.01320313 29.9771875 17.47265625 30.609375 C16 32 16 32 14 32 C13.67 32.99 13.34 33.98 13 35 C10.5625 37.6875 10.5625 37.6875 8 40 C7.34 40 6.68 40 6 40 C5.7525 40.61875 5.505 41.2375 5.25 41.875 C4 44 4 44 0 46 C-4.29 41.71 -8.58 37.42 -13 33 C-8 26 -8 26 -5 23 C-4.34 23 -3.68 23 -3 23 C-3.56959153 19.37386801 -4.92374534 17.74482259 -7.5625 15.25 C-8.20316406 14.63640625 -8.84382813 14.0228125 -9.50390625 13.390625 C-9.99761719 12.93171875 -10.49132812 12.4728125 -11 12 C-7.49102731 7.81576108 -3.91939465 3.80411834 0 0 Z " fill="#34B5E7" transform="translate(76,101)"/>
<path d="M0 0 C2.31 0 4.62 0 7 0 C7 10.89 7 21.78 7 33 C4.36 33 1.72 33 -1 33 C-1.99 33.495 -1.99 33.495 -3 34 C-5.2421875 34.23828125 -5.2421875 34.23828125 -7.875 34.3125 C-9.17050781 34.36857422 -9.17050781 34.36857422 -10.4921875 34.42578125 C-13 34 -13 34 -15.296875 32.44921875 C-17.66404727 29.04505128 -17.46397946 26.60923331 -17.375 22.5 C-17.36210937 21.1903125 -17.34921875 19.880625 -17.3359375 18.53125 C-17.03571725 15.37544643 -16.77833484 13.57290998 -15 11 C-12.37670316 9.68835158 -10.36301375 9.86737154 -7.4375 9.875 C-6.44621094 9.87242188 -5.45492188 9.86984375 -4.43359375 9.8671875 C-2 10 -2 10 -1 11 C-0.67 7.37 -0.34 3.74 0 0 Z " fill="#D0E3EA" transform="translate(348,95)"/>
<path d="M0 0 C2.908125 -0.020625 5.81625 -0.04125 8.8125 -0.0625 C9.72491455 -0.071604 10.6373291 -0.08070801 11.57739258 -0.09008789 C12.66250122 -0.09383423 12.66250122 -0.09383423 13.76953125 -0.09765625 C14.87711792 -0.10551147 14.87711792 -0.10551147 16.00708008 -0.11352539 C18 0 18 0 21 1 C21.66 0.67 22.32 0.34 23 0 C25.05859375 -0.16796875 25.05859375 -0.16796875 27.4375 -0.1875 C28.21996094 -0.20167969 29.00242187 -0.21585937 29.80859375 -0.23046875 C32 0 32 0 35 2 C35.34057617 4.15478516 35.34057617 4.15478516 35.29296875 6.7890625 C35.2784668 8.20058594 35.2784668 8.20058594 35.26367188 9.640625 C35.23853516 10.62546875 35.21339844 11.6103125 35.1875 12.625 C35.16719727 14.11386719 35.16719727 14.11386719 35.14648438 15.6328125 C35.11105743 18.08908072 35.06166196 20.54427285 35 23 C32.69 23 30.38 23 28 23 C27.67 17.06 27.34 11.12 27 5 C25.35 5 23.7 5 22 5 C21.67 10.94 21.34 16.88 21 23 C18.69 23 16.38 23 14 23 C14 16.73 14 10.46 14 4 C12.02 4.33 10.04 4.66 8 5 C7.67 10.94 7.34 16.88 7 23 C4.69 23 2.38 23 0 23 C0 15.41 0 7.82 0 0 Z " fill="#F5FAFC" transform="translate(361,105)"/>
<path d="M0 0 C2.97 0 5.94 0 9 0 C11.92952211 6.38402495 14.4572289 12.80027207 16.75 19.4375 C17.06582031 20.33404297 17.38164062 21.23058594 17.70703125 22.15429688 C20 28.74037811 20 28.74037811 20 31 C17.36 31 14.72 31 12 31 C10.74335022 28.09399739 10 26.20395416 10 23 C6.37 23.33 2.74 23.66 -1 24 C-1.66 26.31 -2.32 28.62 -3 31 C-5.64 31 -8.28 31 -11 31 C-7.58897333 20.55592864 -4.07565967 10.20718308 0 0 Z " fill="#EDF5F7" transform="translate(309,97)"/>
<path d="M0 0 C1.5159375 0.01546875 1.5159375 0.01546875 3.0625 0.03125 C6.65041161 0.60378909 9.40725175 1.90725175 12 4.5 C12.14310287 8.1691577 12.04221662 11.82715441 12 15.5 C7.05 15.5 2.1 15.5 -3 15.5 C-2.67 17.15 -2.34 18.8 -2 20.5 C2.29 20.5 6.58 20.5 11 20.5 C11 22.15 11 23.8 11 25.5 C9.08598477 27.41401523 5.86149652 26.76189296 3.3125 26.8125 C-2.52302248 26.78278756 -5.79488063 26.5849731 -10 22.5 C-11.4935473 19.5129054 -11.30631228 16.4626552 -11.375 13.1875 C-11.42398438 11.87136719 -11.47296875 10.55523437 -11.5234375 9.19921875 C-11 5.5 -11 5.5 -8.8515625 2.55078125 C-5.56139509 0.18456496 -4.00498482 -0.12260158 0 0 Z " fill="#F8FCFC" transform="translate(234,102.5)"/>
<path d="M0 0 C3 0 6 0 9 0 C10.12728516 -0.03480469 10.12728516 -0.03480469 11.27734375 -0.0703125 C12.15519531 -0.08835937 13.03304688 -0.10640625 13.9375 -0.125 C14.81277344 -0.14820312 15.68804687 -0.17140625 16.58984375 -0.1953125 C19 0 19 0 22 2 C22.34057617 4.15478516 22.34057617 4.15478516 22.29296875 6.7890625 C22.28330078 7.73007813 22.27363281 8.67109375 22.26367188 9.640625 C22.23853516 10.62546875 22.21339844 11.6103125 22.1875 12.625 C22.16719727 14.11386719 22.16719727 14.11386719 22.14648438 15.6328125 C22.11105743 18.08908072 22.06166196 20.54427285 22 23 C19.69 23 17.38 23 15 23 C14.67 17.06 14.34 11.12 14 5 C12.02 5 10.04 5 8 5 C7.67 10.94 7.34 16.88 7 23 C4.69 23 2.38 23 0 23 C0 15.41 0 7.82 0 0 Z " fill="#E9F4F6" transform="translate(415,105)"/>
<path d="M0 0 C2.64 0 5.28 0 8 0 C8 2.31 8 4.62 8 7 C9.98 7 11.96 7 14 7 C14 8.65 14 10.3 14 12 C12.02 12 10.04 12 8 12 C8.33 16.95 8.66 21.9 9 27 C10.65 27.33 12.3 27.66 14 28 C14 29.65 14 31.3 14 33 C12.60596244 33.10933628 11.20936224 33.18619553 9.8125 33.25 C9.03519531 33.29640625 8.25789063 33.3428125 7.45703125 33.390625 C3.85890989 32.81858663 2.40198831 31.74029653 0 29 C-0.60261703 26.05752528 -0.47352074 23.23755404 -0.3125 20.25 C-0.27866211 19.06083984 -0.27866211 19.06083984 -0.24414062 17.84765625 C-0.18540471 15.8976238 -0.09572654 13.94856688 0 12 C-1.65 12 -3.3 12 -5 12 C-5 10.35 -5 8.7 -5 7 C-3.35 7 -1.7 7 0 7 C0 4.69 0 2.38 0 0 Z " fill="#EBF2F4" transform="translate(278,96)"/>
<path d="M0 0 C1.70736328 0.03673828 1.70736328 0.03673828 3.44921875 0.07421875 C6.3125 0.3125 6.3125 0.3125 8.3125 1.3125 C8.3125 2.9625 8.3125 4.6125 8.3125 6.3125 C4.3525 6.3125 0.3925 6.3125 -3.6875 6.3125 C-3.71435938 8.45826637 -3.73383088 10.60412645 -3.75 12.75 C-3.76160156 13.94496094 -3.77320313 15.13992187 -3.78515625 16.37109375 C-4.02651792 19.20123341 -4.02651792 19.20123341 -2.6875 20.3125 C-0.83462498 20.38476502 1.02083878 20.3963122 2.875 20.375 C3.88691406 20.36597656 4.89882813 20.35695313 5.94140625 20.34765625 C6.72386719 20.33605469 7.50632812 20.32445313 8.3125 20.3125 C8.3125 21.9625 8.3125 23.6125 8.3125 25.3125 C5.16730478 26.36089841 2.74214977 26.54671029 -0.5625 26.625 C-1.59117187 26.66238281 -2.61984375 26.69976562 -3.6796875 26.73828125 C-7.61490264 26.18121833 -9.10886587 25.35360655 -11.6875 22.3125 C-12.41345071 19.29274145 -12.38660367 16.40509302 -12.3125 13.3125 C-12.33183594 12.50554687 -12.35117188 11.69859375 -12.37109375 10.8671875 C-12.3378479 6.8377902 -12.20664246 4.93489731 -9.56640625 1.76953125 C-6.11724449 0.02389036 -3.848737 -0.12726724 0 0 Z " fill="#E7F2F6" transform="translate(262.6875,102.6875)"/>
<path d="M0 0 C10.625 -0.25 10.625 -0.25 14 2 C14.27570606 4.91714801 14.3722561 7.5886826 14.3125 10.5 C14.31572266 11.28503906 14.31894531 12.07007812 14.32226562 12.87890625 C14.26703869 18.73296131 14.26703869 18.73296131 12 21 C7.98805634 21.27783543 4.02552638 21.0856495 0 21 C0 14.07 0 7.14 0 0 Z " fill="#114159" transform="translate(162,101)"/>
<path d="M0 0 C2.475 0.495 2.475 0.495 5 1 C5 11.23 5 21.46 5 32 C3.02 31.67 1.04 31.34 -1 31 C-1 25.72 -1 20.44 -1 15 C-3.31 15 -5.62 15 -8 15 C-9.66342837 16.66342837 -9.36048097 18.7825709 -9.5625 21.0625 C-9.68818359 22.44115234 -9.68818359 22.44115234 -9.81640625 23.84765625 C-9.87699219 24.55792969 -9.93757813 25.26820312 -10 26 C-10.66 25.67 -11.32 25.34 -12 25 C-11.67 24.34 -11.34 23.68 -11 23 C-11.639375 23.185625 -12.27875 23.37125 -12.9375 23.5625 C-13.618125 23.706875 -14.29875 23.85125 -15 24 C-16.74104353 22.25895647 -16.21311272 19.92635979 -16.25 17.5625 C-16.27578125 16.57378906 -16.3015625 15.58507812 -16.328125 14.56640625 C-16.21984375 13.71949219 -16.1115625 12.87257813 -16 12 C-12.60750652 9.73833768 -11.34798499 9.75484455 -7.375 9.8125 C-6.39273437 9.81894531 -5.41046875 9.82539062 -4.3984375 9.83203125 C-2 10 -2 10 -1 11 C-0.67 7.37 -0.34 3.74 0 0 Z " fill="#FBFEFE" transform="translate(348,95)"/>
<path d="M0 0 C2.31 0 4.62 0 7 0 C7 1.98 7 3.96 7 6 C4.69 6 2.38 6 0 6 C0 6.66 0 7.32 0 8 C2.31 8 4.62 8 7 8 C7 15.59 7 23.18 7 31 C4.36 31 1.72 31 -1 31 C-1.22693321 26.95915379 -1.42824509 22.91741914 -1.625 18.875 C-1.68945312 17.73289062 -1.75390625 16.59078125 -1.8203125 15.4140625 C-1.871875 14.30546875 -1.9234375 13.196875 -1.9765625 12.0546875 C-2.02893066 11.03874512 -2.08129883 10.02280273 -2.13525391 8.97607422 C-1.98523734 5.67516814 -1.17450289 3.07455194 0 0 Z " fill="#EFF9FB" transform="translate(402,97)"/>
<path d="M0 0 C0 1.98 0 3.96 0 6 C-1.7015625 6.2165625 -1.7015625 6.2165625 -3.4375 6.4375 C-6.80777201 6.61171478 -6.80777201 6.61171478 -8 8 C-8.23701239 10.85877909 -8.42219182 13.69883297 -8.5625 16.5625 C-8.60568359 17.36880859 -8.64886719 18.17511719 -8.69335938 19.00585938 C-8.79975262 21.00368805 -8.90040888 23.0018207 -9 25 C-11.31 25 -13.62 25 -16 25 C-16 17.08 -16 9.16 -16 1 C-14.02 1 -12.04 1 -10 1 C-10 1.66 -10 2.32 -10 3 C-9.34 3 -8.68 3 -8 3 C-8 2.34 -8 1.68 -8 1 C-5.29120665 -0.35439668 -2.99066732 -0.06501451 0 0 Z " fill="#F8FDFE" transform="translate(220,103)"/>
<path d="M0 0 C0.99 0.66 1.98 1.32 3 2 C1.69610877 9.4437335 -5.55103788 14.62523361 -11.02734375 19.2890625 C-16.16653042 23.74641649 -20.65939872 28.72020124 -25.08984375 33.8671875 C-28.55922673 37.74097708 -32.28633589 41.36212495 -36 45 C-36.99 44.67 -37.98 44.34 -39 44 C-37.52936999 40.58372409 -35.62381294 38.40204301 -32.97265625 35.8125 C-32.18052734 35.03132813 -31.38839844 34.25015625 -30.57226562 33.4453125 C-29.74404297 32.63835937 -28.91582031 31.83140625 -28.0625 31 C-26.42610997 29.39815456 -24.79190988 27.79406816 -23.16015625 26.1875 C-22.43449463 25.47980469 -21.70883301 24.77210938 -20.96118164 24.04296875 C-18.95440362 22.04696174 -18.95440362 22.04696174 -17.36499023 19.73828125 C-16.91454346 19.16464844 -16.46409668 18.59101563 -16 18 C-15.34 18 -14.68 18 -14 18 C-13.67 17.01 -13.34 16.02 -13 15 C-11.71340837 13.62150897 -10.37086915 12.29470975 -9 11 C-8.154375 10.154375 -7.30875 9.30875 -6.4375 8.4375 C-5.06234218 7.06234218 -3.67511248 5.69831873 -2.25 4.375 C-0.74340914 2.90383382 -0.74340914 2.90383382 0 0 Z " fill="#0A82B1" transform="translate(134,122)"/>
<path d="M0 0 C2.31 0 4.62 0 7 0 C7 7.92 7 15.84 7 24 C4.69 24 2.38 24 0 24 C0 16.08 0 8.16 0 0 Z " fill="#F6FDFE" transform="translate(190,104)"/>
<path d="M0 0 C0.33 1.32 0.66 2.64 1 4 C0.34 4 -0.32 4 -1 4 C-0.34 8.62 0.32 13.24 1 18 C4.1490712 15.2981424 4.1490712 15.2981424 5 12 C10.28 12 15.56 12 21 12 C21 12.33 21 12.66 21 13 C16.05 13 11.1 13 6 13 C6.33 14.65 6.66 16.3 7 18 C11.29 18 15.58 18 20 18 C20 19.65 20 21.3 20 23 C18.08598477 24.91401523 14.86149652 24.26189296 12.3125 24.3125 C6.47697752 24.28278756 3.20511937 24.0849731 -1 20 C-2.50930882 16.98138236 -2.18438844 13.87008697 -2.1875 10.5625 C-2.19974609 9.88123047 -2.21199219 9.19996094 -2.22460938 8.49804688 C-2.23555848 4.77170191 -2.12005619 3.18008429 0 0 Z " fill="#E2EEF2" transform="translate(225,105)"/>
<path d="M0 0 C0.66 0 1.32 0 2 0 C2 1.32 2 2.64 2 4 C3.11375 4.103125 4.2275 4.20625 5.375 4.3125 C7.169375 4.6528125 7.169375 4.6528125 9 5 C11.31361802 8.47042703 11.51020728 9.91834173 11 14 C8.68135486 16.67535978 7.35024244 16.97253 3.8125 17.25 C1 17 1 17 0 16 C-0.07319621 13.30345146 -0.09242537 10.63308542 -0.0625 7.9375 C-0.05798828 7.17888672 -0.05347656 6.42027344 -0.04882812 5.63867188 C-0.0370068 3.75908129 -0.01907078 1.87953101 0 0 Z " fill="#628797" transform="translate(198,138)"/>
<path d="M0 0 C3.5 0.125 3.5 0.125 4.5 1.125 C4.5989294 3.28980797 4.629711 5.45793785 4.625 7.625 C4.62757813 8.8109375 4.63015625 9.996875 4.6328125 11.21875 C4.5 14.125 4.5 14.125 3.5 15.125 C0.82941149 15.26615161 -1.82432238 15.16747107 -4.5 15.125 C-4.52685412 12.81256208 -4.54632841 10.5000373 -4.5625 8.1875 C-4.57410156 6.89972656 -4.58570313 5.61195312 -4.59765625 4.28515625 C-4.47016838 0.15964887 -4.47016838 0.15964887 0 0 Z " fill="#0A3852" transform="translate(343.5,108.875)"/>
<path d="M0 0 C1.65 0 3.3 0 5 0 C6.20029908 2.40059817 6.11459743 3.89360649 6.09765625 6.5703125 C6.09282227 7.91416016 6.09282227 7.91416016 6.08789062 9.28515625 C6.07951172 10.22230469 6.07113281 11.15945312 6.0625 12.125 C6.05798828 13.06988281 6.05347656 14.01476562 6.04882812 14.98828125 C6.03702357 17.32558387 6.02055759 19.66276061 6 22 C4.02 22 2.04 22 0 22 C0 14.74 0 7.48 0 0 Z " fill="#FBFDFE" transform="translate(416,106)"/>
<path d="M0 0 C3.625 0.3125 3.625 0.3125 5.625 1.9375 C6.96680884 5.12429601 6.55447204 7.02359893 5.625 10.3125 C3.625 12.3125 3.625 12.3125 0.5 12.4375 C-0.44875 12.39625 -1.3975 12.355 -2.375 12.3125 C-2.375 13.9625 -2.375 15.6125 -2.375 17.3125 C-3.035 17.3125 -3.695 17.3125 -4.375 17.3125 C-4.40184679 14.66659986 -4.42176357 12.02096904 -4.4375 9.375 C-4.44587891 8.62025391 -4.45425781 7.86550781 -4.46289062 7.08789062 C-4.47152441 5.16255687 -4.42724333 3.23714419 -4.375 1.3125 C-3.375 0.3125 -3.375 0.3125 0 0 Z " fill="#648899" transform="translate(362.375,141.6875)"/>
<path d="M0 0 C1.4540625 0.2165625 1.4540625 0.2165625 2.9375 0.4375 C5.40074069 4.13236103 5.32741688 6.07043092 4.9375 10.4375 C3.75 12.375 3.75 12.375 1.9375 13.4375 C-0.91730169 13.86572025 -2.40742892 13.84409584 -4.875 12.3125 C-6.62207504 9.55396047 -6.45453417 7.63911236 -6.0625 4.4375 C-4.46297292 1.0607206 -3.73834001 0.53404857 0 0 Z " fill="#355F73" transform="translate(253.0625,141.5625)"/>
<path d="M0 0 C1.52491998 3.04983996 1.23562548 5.6423369 1 9 C-0.1875 10.9375 -0.1875 10.9375 -2 12 C-4.82115488 12.42317323 -6.33950907 12.38718434 -8.8125 10.9375 C-10.67036623 7.90624457 -10.37133265 5.46577141 -10 2 C-7.70989947 -2.31077747 -4.20045325 -1.01122023 0 0 Z " fill="#355E74" transform="translate(324,143)"/>
<path d="M0 0 C0.97066406 -0.00515625 1.94132812 -0.0103125 2.94140625 -0.015625 C5.4375 0.25 5.4375 0.25 7.4375 2.25 C7.1075 3.24 6.7775 4.23 6.4375 5.25 C5.303125 5.229375 4.16875 5.20875 3 5.1875 C-0.37825674 4.83422523 -0.37825674 4.83422523 -1.5625 6.25 C-1.79537008 7.93183948 -1.97514166 9.6212416 -2.125 11.3125 C-2.25068359 12.69115234 -2.25068359 12.69115234 -2.37890625 14.09765625 C-2.43949219 14.80792969 -2.50007813 15.51820312 -2.5625 16.25 C-3.2225 15.92 -3.8825 15.59 -4.5625 15.25 C-4.2325 14.59 -3.9025 13.93 -3.5625 13.25 C-4.5215625 13.5284375 -4.5215625 13.5284375 -5.5 13.8125 C-6.180625 13.956875 -6.86125 14.10125 -7.5625 14.25 C-9.30354353 12.50895647 -8.77561272 10.17635979 -8.8125 7.8125 C-8.83828125 6.82378906 -8.8640625 5.83507812 -8.890625 4.81640625 C-8.78234375 3.96949219 -8.6740625 3.12257813 -8.5625 2.25 C-5.19898987 0.00765991 -3.93939944 -0.02098215 0 0 Z " fill="#FAFCFB" transform="translate(340.5625,104.75)"/>
<path d="M0 0 C0.66 0.33 1.32 0.66 2 1 C1.40300869 4.33135891 0.27987719 6.21275667 -1.9375 8.75 C-2.46214844 9.36359375 -2.98679687 9.9771875 -3.52734375 10.609375 C-5 12 -5 12 -7 12 C-7.33 12.99 -7.66 13.98 -8 15 C-10.4375 17.6875 -10.4375 17.6875 -13 20 C-13.66 20 -14.32 20 -15 20 C-15.2475 20.61875 -15.495 21.2375 -15.75 21.875 C-17.20628639 24.35068687 -18.37812506 24.95125002 -21 26 C-21.66 25.01 -22.32 24.02 -23 23 C-22.48050781 22.55269531 -21.96101563 22.10539062 -21.42578125 21.64453125 C-14.36635502 15.64955099 -14.36635502 15.64955099 -8.3125 8.6875 C-7.6628125 7.8521875 -7.6628125 7.8521875 -7 7 C-6.34 7 -5.68 7 -5 7 C-4.731875 6.401875 -4.46375 5.80375 -4.1875 5.1875 C-3.01506533 3.02775192 -1.80630718 1.64209744 0 0 Z " fill="#0E81B1" transform="translate(97,121)"/>
<path d="M0 0 C0.33 0 0.66 0 1 0 C1.33 2.64 1.66 5.28 2 8 C3.32 8 4.64 8 6 8 C6.33 8.99 6.66 9.98 7 11 C7 7.7 7 4.4 7 1 C7.33 1 7.66 1 8 1 C8.03867187 2.37285156 8.03867187 2.37285156 8.078125 3.7734375 C8.13484375 4.96195312 8.1915625 6.15046875 8.25 7.375 C8.29640625 8.55835937 8.3428125 9.74171875 8.390625 10.9609375 C8.65648799 14.11291753 8.65648799 14.11291753 11.046875 15.4140625 C11.69140625 15.60742188 12.3359375 15.80078125 13 16 C13 16.66 13 17.32 13 18 C11.39667209 18.08121924 9.79215974 18.13929134 8.1875 18.1875 C6.84751953 18.23970703 6.84751953 18.23970703 5.48046875 18.29296875 C3 18 3 18 1.1875 16.96875 C-0.6607518 13.90454307 -0.31355351 10.77412341 -0.1875 7.3125 C-0.17396484 6.61060547 -0.16042969 5.90871094 -0.14648438 5.18554688 C-0.11120182 3.45670171 -0.05739583 1.72825235 0 0 Z " fill="#CDDFE3" transform="translate(331,110)"/>
<path d="M0 0 C2.875 -0.125 2.875 -0.125 6 0 C8 2 8 2 8.1953125 4.3828125 C8.17210937 5.28773438 8.14890625 6.19265625 8.125 7.125 C8.10695313 8.03507813 8.08890625 8.94515625 8.0703125 9.8828125 C8.04710937 10.58148438 8.02390625 11.28015625 8 12 C5.03 12 2.06 12 -1 12 C-1.33 10.35 -1.66 8.7 -2 7 C1.22791555 4.8480563 2.28400809 4.79913557 6 5 C6 4.01 6 3.02 6 2 C4.02 2 2.04 2 0 2 C0 1.34 0 0.68 0 0 Z " fill="#61879D" transform="translate(379,142)"/>
<path d="M0 0 C2 2 2 2 2.125 4.625 C2.08375 5.40875 2.0425 6.1925 2 7 C-0.64 7 -3.28 7 -6 7 C-6 7.99 -6 8.98 -6 10 C-3.36 10.33 -0.72 10.66 2 11 C2 11.33 2 11.66 2 12 C-4.0546875 12.1953125 -4.0546875 12.1953125 -6 12 C-8 10 -8 10 -8.3125 6.5625 C-8 3 -8 3 -6.8125 1.0625 C-4.37896796 -0.36405327 -2.77457104 -0.35571424 0 0 Z " fill="#67879C" transform="translate(424,142)"/>
<path d="M0 0 C3.625 0.375 3.625 0.375 7 1 C7.38218767 2.65614657 7.71395102 4.32457024 8 6 C7 7 7 7 5.15234375 7.09765625 C3.1015625 7.06510417 1.05078125 7.03255208 -1 7 C0.70892499 10.31460705 0.70892499 10.31460705 4.125 10.6875 C5.07375 10.790625 6.0225 10.89375 7 11 C7 11.33 7 11.66 7 12 C3.625 12.125 3.625 12.125 0 12 C-2 10 -2 10 -2.265625 8.125 C-2.26046875 7.42375 -2.2553125 6.7225 -2.25 6 C-2.25515625 5.29875 -2.2603125 4.5975 -2.265625 3.875 C-2 2 -2 2 0 0 Z " fill="#648BA5" transform="translate(181,142)"/>
<path d="M0 0 C2.31 0 4.62 0 7 0 C7 1.98 7 3.96 7 6 C4.69 6 2.38 6 0 6 C0 14.25 0 22.5 0 31 C-0.33 31 -0.66 31 -1 31 C-1.22693321 26.95915379 -1.42824509 22.91741914 -1.625 18.875 C-1.68945312 17.73289062 -1.75390625 16.59078125 -1.8203125 15.4140625 C-1.871875 14.30546875 -1.9234375 13.196875 -1.9765625 12.0546875 C-2.02893066 11.03874512 -2.08129883 10.02280273 -2.13525391 8.97607422 C-1.98523734 5.67516814 -1.17450289 3.07455194 0 0 Z " fill="#30586C" transform="translate(402,97)"/>
<path d="M0 0 C2.97 0 5.94 0 9 0 C9.66 1.32 10.32 2.64 11 4 C11.66 4.33 12.32 4.66 13 5 C10.49860398 6.25069801 8.72607309 6.13302467 5.9375 6.125 C4.58978516 6.12886719 4.58978516 6.12886719 3.21484375 6.1328125 C1 6 1 6 0 5 C-0.04063832 3.33382885 -0.042721 1.66611905 0 0 Z " fill="#134157" transform="translate(231,118)"/>
<path d="M0 0 C1.99954746 -0.04254356 4.00041636 -0.04080783 6 0 C7 1 7 1 7.125 4.5 C7 8 7 8 6 9 C4.00041636 9.04080783 1.99954746 9.04254356 0 9 C0 6.03 0 3.06 0 0 Z " fill="#0A3850" transform="translate(200,144)"/>
<path d="M0 0 C0 1.98 0 3.96 0 6 C-6.625 7 -6.625 7 -10 7 C-10.66 6.01 -11.32 5.02 -12 4 C-10.68 3.67 -9.36 3.34 -8 3 C-8 2.34 -8 1.68 -8 1 C-5.29120665 -0.35439668 -2.99066732 -0.06501451 0 0 Z " fill="#DBE5E9" transform="translate(220,103)"/>
<path d="M0 0 C1.99954746 -0.04254356 4.00041636 -0.04080783 6 0 C7 1 7 1 7.1875 3.9375 C7 7 7 7 5 9 C2.375 9.125 2.375 9.125 0 9 C0 6.03 0 3.06 0 0 Z " fill="#07364F" transform="translate(360,144)"/>
<path d="M0 0 C2.97 0 5.94 0 9 0 C9 4 9 4 8 7 C3.71 6.67 -0.58 6.34 -5 6 C-5 5.67 -5 5.34 -5 5 C-3.35 4.67 -1.7 4.34 0 4 C0 2.68 0 1.36 0 0 Z " fill="#E4F0F0" transform="translate(167,95)"/>
<path d="M0 0 C0.7734375 -0.00515625 1.546875 -0.0103125 2.34375 -0.015625 C4.5 0.25 4.5 0.25 7.5 2.25 C7.17 3.57 6.84 4.89 6.5 6.25 C5.51 6.25 4.52 6.25 3.5 6.25 C3.5 5.59 3.5 4.93 3.5 4.25 C-0.955 4.745 -0.955 4.745 -5.5 5.25 C-6.16 4.26 -6.82 3.27 -7.5 2.25 C-4.377998 0.16866533 -3.56733011 -0.0237822 0 0 Z " fill="#E7F1F4" transform="translate(388.5,104.75)"/>
<path d="M0 0 C2.64 0 5.28 0 8 0 C8 2.31 8 4.62 8 7 C5.36 7 2.72 7 0 7 C0 4.69 0 2.38 0 0 Z " fill="#C5D7DF" transform="translate(189,94)"/>
<path d="M0 0 C0.66 0 1.32 0 2 0 C2.99 2.64 3.98 5.28 5 8 C5.99 5.36 6.98 2.72 8 0 C9.15957207 3.47871621 8.77456651 4.34219645 7.5625 7.6875 C7.27503906 8.49574219 6.98757812 9.30398437 6.69140625 10.13671875 C6.46324219 10.75160156 6.23507813 11.36648437 6 12 C5.34 12 4.68 12 4 12 C3.01 9.69 2.02 7.38 1 5 C0.01 7.64 -0.98 10.28 -2 13 C-2.66 13 -3.32 13 -4 13 C-4 11.68 -4 10.36 -4 9 C-3.34 9 -2.68 9 -2 9 C-1.34 6.03 -0.68 3.06 0 0 Z " fill="#5F8397" transform="translate(161,142)"/>
<path d="M0 0 C3.5 0.125 3.5 0.125 4.5 1.125 C4.54063832 2.79117115 4.542721 4.45888095 4.5 6.125 C1.53 6.125 -1.44 6.125 -4.5 6.125 C-4.542721 4.45888095 -4.54063832 2.79117115 -4.5 1.125 C-3.5 0.125 -3.5 0.125 0 0 Z " fill="#4C6E7C" transform="translate(234.5,107.875)"/>
<path d="M0 0 C2 2 2 2 2.1953125 4.6015625 C2.17210937 5.59929687 2.14890625 6.59703125 2.125 7.625 C2.10695313 8.62789062 2.08890625 9.63078125 2.0703125 10.6640625 C2.03550781 11.82035156 2.03550781 11.82035156 2 13 C1.34 13 0.68 13 0 13 C-0.33 9.7 -0.66 6.4 -1 3 C-2.65 3 -4.3 3 -6 3 C-6.33 6.3 -6.66 9.6 -7 13 C-7.33 13 -7.66 13 -8 13 C-8 9.04 -8 5.08 -8 1 C-5.03104944 0.01034981 -3.0913386 -0.23779528 0 0 Z " fill="#63879C" transform="translate(405,142)"/>
<path d="M0 0 C2.5 0.125 2.5 0.125 3.5 1.125 C3.58631874 2.46767413 3.60706473 3.81474322 3.59765625 5.16015625 C3.59282227 6.37348633 3.59282227 6.37348633 3.58789062 7.61132812 C3.57951172 8.46146484 3.57113281 9.31160156 3.5625 10.1875 C3.55798828 11.04150391 3.55347656 11.89550781 3.54882812 12.77539062 C3.53700373 14.89195663 3.51906769 17.00848685 3.5 19.125 C3.17 19.125 2.84 19.125 2.5 19.125 C2.17 13.845 1.84 8.565 1.5 3.125 C0.51 3.125 -0.48 3.125 -1.5 3.125 C-1.83 8.405 -2.16 13.685 -2.5 19.125 C-2.83 19.125 -3.16 19.125 -3.5 19.125 C-3.52683987 16.14577407 -3.54676037 13.16678705 -3.5625 10.1875 C-3.57087891 9.33736328 -3.57925781 8.48722656 -3.58789062 7.61132812 C-3.59111328 6.80244141 -3.59433594 5.99355469 -3.59765625 5.16015625 C-3.60289307 4.4112915 -3.60812988 3.66242676 -3.61352539 2.89086914 C-3.43038747 0.04218825 -2.85084039 0.14254202 0 0 Z " fill="#284C61" transform="translate(385.5,108.875)"/>
<path d="M0 0 C2.3129482 2.3129482 2.49580975 3.47904875 3.125 6.625 C3.29257812 7.44226563 3.46015625 8.25953125 3.6328125 9.1015625 C3.81457031 10.04128906 3.81457031 10.04128906 4 11 C1.69 11 -0.62 11 -3 11 C-2.69078116 9.54096742 -2.37751201 8.08279278 -2.0625 6.625 C-1.88847656 5.81289062 -1.71445312 5.00078125 -1.53515625 4.1640625 C-1 2 -1 2 0 0 Z " fill="#2D4F67" transform="translate(313,104)"/>
<path d="M0 0 C1.06347656 0.00515625 2.12695312 0.0103125 3.22265625 0.015625 C4.28355469 0.01046875 5.34445313 0.0053125 6.4375 0 C9.28515625 0.265625 9.28515625 0.265625 12.28515625 2.265625 C9.28515625 3.265625 9.28515625 3.265625 6.28515625 2.265625 C6.61515625 3.255625 6.94515625 4.245625 7.28515625 5.265625 C5.30515625 5.265625 3.32515625 5.265625 1.28515625 5.265625 C1.61515625 4.275625 1.94515625 3.285625 2.28515625 2.265625 C-0.02484375 2.265625 -2.33484375 2.265625 -4.71484375 2.265625 C-2.71484375 0.265625 -2.71484375 0.265625 0 0 Z " fill="#D8E7EC" transform="translate(230.71484375,102.734375)"/>
<path d="M0 0 C0.66 0.33 1.32 0.66 2 1 C2 1.99 2 2.98 2 4 C1.01 4 0.02 4 -1 4 C-1.0825 4.7425 -1.165 5.485 -1.25 6.25 C-2.1396946 9.51221354 -3.48503749 10.80954878 -6 13 C-7.32 12.34 -8.64 11.68 -10 11 C-9.0409375 10.5978125 -9.0409375 10.5978125 -8.0625 10.1875 C-5.66868314 9.11332248 -5.66868314 9.11332248 -5 6 C-3.68733482 4.64631404 -2.35432675 3.31200404 -1 2 C-0.67 1.34 -0.34 0.68 0 0 Z " fill="#0C87BA" transform="translate(126,131)"/>
<path d="M0 0 C2.31 0 4.62 0 7 0 C7.33 0.99 7.66 1.98 8 3 C10.01508358 3.73323796 10.01508358 3.73323796 12 4 C10.02 4.33 8.04 4.66 6 5 C6 3.68 6 2.36 6 1 C4.35 1 2.7 1 1 1 C1 8.26 1 15.52 1 23 C0.67 23 0.34 23 0 23 C0 15.41 0 7.82 0 0 Z " fill="#D5E8F7" transform="translate(361,105)"/>
<path d="M0 0 C0.66 0 1.32 0 2 0 C2.02685938 2.14576637 2.04633088 4.29162645 2.0625 6.4375 C2.07410156 7.63246094 2.08570313 8.82742187 2.09765625 10.05859375 C2 13 2 13 1 14 C-1.67058851 14.14115161 -4.32432238 14.04247107 -7 14 C-7 13.34 -7 12.68 -7 12 C-5.35 12 -3.7 12 -2 12 C-0.78306124 9.56612247 -0.68040104 7.58161154 -0.4375 4.875 C-0.35371094 3.96492188 -0.26992188 3.05484375 -0.18359375 2.1171875 C-0.12300781 1.41851562 -0.06242187 0.71984375 0 0 Z " fill="#1A4354" transform="translate(346,110)"/>
<path d="M0 0 C0.33 0 0.66 0 1 0 C1.33 5.94 1.66 11.88 2 18 C0.68 17.67 -0.64 17.34 -2 17 C-2.625 14.125 -2.625 14.125 -3 11 C-2.34 10.34 -1.68 9.68 -1 9 C-0.53993654 6.79749008 -0.53993654 6.79749008 -0.375 4.375 C-0.30023438 3.55773437 -0.22546875 2.74046875 -0.1484375 1.8984375 C-0.09945313 1.27195312 -0.05046875 0.64546875 0 0 Z " fill="#06354B" transform="translate(330,109)"/>
<path d="M0 0 C0.66 0.33 1.32 0.66 2 1 C1.01 2.485 1.01 2.485 0 4 C-0.66 4 -1.32 4 -2 4 C-2.2475 4.61875 -2.495 5.2375 -2.75 5.875 C-4.20628639 8.35068687 -5.37812506 8.95125002 -8 10 C-8.66 9.01 -9.32 8.02 -10 7 C-3.23076923 1.15384615 -3.23076923 1.15384615 0 0 Z " fill="#0B7FB4" transform="translate(84,137)"/>
<path d="M0 0 C0.042721 1.66611905 0.04063832 3.33382885 0 5 C-1 6 -1 6 -4.16015625 6.09765625 C-6.09181641 6.08025391 -6.09181641 6.08025391 -8.0625 6.0625 C-9.35285156 6.05347656 -10.64320313 6.04445312 -11.97265625 6.03515625 C-12.97167969 6.02355469 -13.97070312 6.01195312 -15 6 C-15 5.67 -15 5.34 -15 5 C-14.14535156 4.95101562 -13.29070312 4.90203125 -12.41015625 4.8515625 C-11.30542969 4.77679688 -10.20070312 4.70203125 -9.0625 4.625 C-7.40927734 4.52058594 -7.40927734 4.52058594 -5.72265625 4.4140625 C-4.37494141 4.20910156 -4.37494141 4.20910156 -3 4 C-2.67 3.34 -2.34 2.68 -2 2 C-5.3 2 -8.6 2 -12 2 C-12 1.67 -12 1.34 -12 1 C-10.56274129 0.83126522 -9.12518162 0.66509263 -7.6875 0.5 C-6.88699219 0.4071875 -6.08648437 0.314375 -5.26171875 0.21875 C-3 0 -3 0 0 0 Z " fill="#C4DBE6" transform="translate(245,123)"/>
<path d="M0 0 C0.66 0 1.32 0 2 0 C2 0.66 2 1.32 2 2 C2.99 2.33 3.98 2.66 5 3 C4.01 3 3.02 3 2 3 C2 6.3 2 9.6 2 13 C2.99 13 3.98 13 5 13 C5 13.66 5 14.32 5 15 C3.0625 14.625 3.0625 14.625 1 14 C-0.38226016 11.23547967 -0.09525387 8.9538637 -0.0625 5.875 C-0.05347656 4.77929688 -0.04445313 3.68359375 -0.03515625 2.5546875 C-0.02355469 1.71164063 -0.01195312 0.86859375 0 0 Z " fill="#58829B" transform="translate(287,140)"/>
<path d="M0 0 C2.31 0 4.62 0 7 0 C7 1.65 7 3.3 7 5 C4.69 5 2.38 5 0 5 C0 3.35 0 1.7 0 0 Z " fill="#ECF9FD" transform="translate(402,97)"/>
<path d="M0 0 C0.33 0 0.66 0 1 0 C1.02712066 1.43739513 1.04645067 2.87493863 1.0625 4.3125 C1.07410156 5.11300781 1.08570313 5.91351563 1.09765625 6.73828125 C1 9 1 9 0 12 C-1.65 12 -3.3 12 -5 12 C-5 10.35 -5 8.7 -5 7 C-3.35 7 -1.7 7 0 7 C0 4.69 0 2.38 0 0 Z " fill="#D4E3E9" transform="translate(278,96)"/>
<path d="M0 0 C0.99 1.32 1.98 2.64 3 4 C2.01 4.33 1.02 4.66 0 5 C-0.99 5.495 -0.99 5.495 -2 6 C-3.70702735 6.06996014 -5.41668003 6.08440154 -7.125 6.0625 C-8.03507812 6.05347656 -8.94515625 6.04445312 -9.8828125 6.03515625 C-10.58148438 6.02355469 -11.28015625 6.01195312 -12 6 C-12 5.67 -12 5.34 -12 5 C-9.03 5 -6.06 5 -3 5 C-3.95865509 2.66924071 -3.95865509 2.66924071 -7 1 C-3.535 0.505 -3.535 0.505 0 0 Z " fill="#BFD6DE" transform="translate(347,123)"/>
<path d="M0 0 C0.33 0 0.66 0 1 0 C1.06058594 1.20398438 1.12117187 2.40796875 1.18359375 3.6484375 C1.26799732 5.22397077 1.35264541 6.79949096 1.4375 8.375 C1.47681641 9.1690625 1.51613281 9.963125 1.55664062 10.78125 C1.68893404 15.02601221 1.68893404 15.02601221 3 19 C1.02 19.33 -0.96 19.66 -3 20 C-3 18.02 -3 16.04 -3 14 C-2.01 14.495 -2.01 14.495 -1 15 C-0.67 10.05 -0.34 5.1 0 0 Z " fill="#1A455A" transform="translate(250,108)"/>
<path d="M0 0 C0.66 0.33 1.32 0.66 2 1 C2 1.66 2 2.32 2 3 C1.01 3.33 0.02 3.66 -1 4 C-2.44870619 5.85804317 -2.44870619 5.85804317 -3.6875 8.0625 C-4.12449219 8.79597656 -4.56148438 9.52945313 -5.01171875 10.28515625 C-5.50091797 11.13400391 -5.50091797 11.13400391 -6 12 C-6.66 11.67 -7.32 11.34 -8 11 C-7.43040847 7.37386801 -6.07625466 5.74482259 -3.4375 3.25 C-2.79683594 2.63640625 -2.15617187 2.0228125 -1.49609375 1.390625 C-1.00238281 0.93171875 -0.50867188 0.4728125 0 0 Z " fill="#33A8D0" transform="translate(91,85)"/>
<path d="M0 0 C0.33 1.32 0.66 2.64 1 4 C-1.97 4 -4.94 4 -8 4 C-7.67 2.68 -7.34 1.36 -7 0 C-4.3333581 -1.33332095 -2.83319697 -0.67102033 0 0 Z " fill="#EBF6F7" transform="translate(347,106)"/>
<path d="M0 0 C1.65 0 3.3 0 5 0 C4.01 1.485 4.01 1.485 3 3 C2.54398739 5.50896686 2.54398739 5.50896686 2.375 8.1875 C2.30023438 9.08855469 2.22546875 9.98960937 2.1484375 10.91796875 C2.09945313 11.60503906 2.05046875 12.29210937 2 13 C1.34 13 0.68 13 0 13 C0 8.71 0 4.42 0 0 Z " fill="#558497" transform="translate(301,142)"/>
<path d="M0 0 C2.125 0.375 2.125 0.375 4 1 C2.35 2.98 0.7 4.96 -1 7 C-1.99 6.67 -2.98 6.34 -4 6 C-2.84826645 3.53199953 -1.95216435 1.95216435 0 0 Z " fill="#0C7FA5" transform="translate(99,160)"/>
<path d="M0 0 C2.31 0.33 4.62 0.66 7 1 C7.33 1.99 7.66 2.98 8 4 C5.36 4 2.72 4 0 4 C0 2.68 0 1.36 0 0 Z " fill="#F8FEFC" transform="translate(336,124)"/>
<path d="M0 0 C3.96 0 7.92 0 12 0 C12 0.66 12 1.32 12 2 C8.04 2.66 4.08 3.32 0 4 C0 2.68 0 1.36 0 0 Z " fill="#FBFCFD" transform="translate(258,105)"/>
<path d="M0 0 C0.66 0 1.32 0 2 0 C2.33 2.97 2.66 5.94 3 9 C1.35 9.33 -0.3 9.66 -2 10 C-1.47731534 7.23723823 -0.89130413 4.6739124 0 2 C0 1.34 0 0.68 0 0 Z " fill="#33617C" transform="translate(154,142)"/>
<path d="M0 0 C1.4540625 0.0309375 1.4540625 0.0309375 2.9375 0.0625 C2.6075 1.3825 2.2775 2.7025 1.9375 4.0625 C2.5975 4.0625 3.2575 4.0625 3.9375 4.0625 C3.9375 6.0425 3.9375 8.0225 3.9375 10.0625 C3.6075 10.0625 3.2775 10.0625 2.9375 10.0625 C2.9375 8.4125 2.9375 6.7625 2.9375 5.0625 C1.6175 4.7325 0.2975 4.4025 -1.0625 4.0625 C-1.0625 3.4025 -1.0625 2.7425 -1.0625 2.0625 C-2.0525 1.7325 -3.0425 1.4025 -4.0625 1.0625 C-3.0625 0.0625 -3.0625 0.0625 0 0 Z " fill="#083646" transform="translate(243.0625,117.9375)"/>
<path d="M0 0 C1.65 0 3.3 0 5 0 C5 1.65 5 3.3 5 5 C2.03 5 -0.94 5 -4 5 C-4 4.67 -4 4.34 -4 4 C-2.35 4 -0.7 4 1 4 C0.67 2.68 0.34 1.36 0 0 Z " fill="#CDE1E9" transform="translate(287,124)"/>
<path d="M0 0 C1.15957207 3.47871621 0.77456651 4.34219645 -0.4375 7.6875 C-0.72496094 8.49574219 -1.01242188 9.30398437 -1.30859375 10.13671875 C-1.53675781 10.75160156 -1.76492187 11.36648437 -2 12 C-2.66 12 -3.32 12 -4 12 C-4.33 10.02 -4.66 8.04 -5 6 C-4.34 6.66 -3.68 7.32 -3 8 C-2.01 5.36 -1.02 2.72 0 0 Z " fill="#708FA2" transform="translate(169,142)"/>
<path d="M0 0 C0.33 1.32 0.66 2.64 1 4 C-3.39453125 8.00390625 -3.39453125 8.00390625 -5 9 C-5.99 8.67 -6.98 8.34 -8 8 C-6.50260417 6.79557292 -5.00520833 5.59114583 -3.5078125 4.38671875 C-1.74707893 2.87729455 -1.74707893 2.87729455 0 0 Z " fill="#004764" transform="translate(127,136)"/>
<path d="M0 0 C0 0.66 0 1.32 0 2 C-0.99 2.495 -0.99 2.495 -2 3 C-2.68931344 5.34907875 -2.68931344 5.34907875 -3.125 8.0625 C-3.29257812 8.98160156 -3.46015625 9.90070313 -3.6328125 10.84765625 C-3.75398438 11.55792969 -3.87515625 12.26820312 -4 13 C-4.33 13 -4.66 13 -5 13 C-5.08086147 11.20906809 -5.13912702 9.41710372 -5.1875 7.625 C-5.22230469 6.62726563 -5.25710938 5.62953125 -5.29296875 4.6015625 C-5.14794922 3.31378906 -5.14794922 3.31378906 -5 2 C-2 0 -2 0 0 0 Z " fill="#E4F4F7" transform="translate(337,105)"/>
<path d="M0 0 C4.75 -0.125 4.75 -0.125 7 1 C7 1.99 7 2.98 7 4 C4.69 4 2.38 4 0 4 C0 2.68 0 1.36 0 0 Z " fill="#023547" transform="translate(231,109)"/>
<path d="M0 0 C7.046875 -0.16015625 7.046875 -0.16015625 10 1 C10.66 1.99 11.32 2.98 12 4 C10.02 4.33 8.04 4.66 6 5 C5.67 3.68 5.34 2.36 5 1 C3.35 1 1.7 1 0 1 C0 0.67 0 0.34 0 0 Z " fill="#DCEFF8" transform="translate(416,105)"/>
<path d="M0 0 C1.98 0 3.96 0 6 0 C5.67 1.32 5.34 2.64 5 4 C3.35 3.67 1.7 3.34 0 3 C0 2.01 0 1.02 0 0 Z " fill="#0C384A" transform="translate(379,149)"/>
<path d="M0 0 C0.33 1.32 0.66 2.64 1 4 C-0.98 5.32 -2.96 6.64 -5 8 C-5.66 7.67 -6.32 7.34 -7 7 C-4.69 4.69 -2.38 2.38 0 0 Z " fill="#34AACD" transform="translate(109,126)"/>
<path d="M0 0 C1.98 0 3.96 0 6 0 C6.33 0.99 6.66 1.98 7 3 C4.36 3 1.72 3 -1 3 C-0.67 2.01 -0.34 1.02 0 0 Z " fill="#0E3852" transform="translate(181,144)"/>
<path d="M0 0 C1.31611677 0.95336021 2.62778961 1.91285774 3.9375 2.875 C4.66839844 3.40867187 5.39929688 3.94234375 6.15234375 4.4921875 C8 6 8 6 9 8 C8.01 8.33 7.02 8.66 6 9 C6 8.34 6 7.68 6 7 C5.34 7 4.68 7 4 7 C1.875 5.1875 1.875 5.1875 0 3 C0 2.01 0 1.02 0 0 Z " fill="#36AFD8" transform="translate(124,113)"/>
<path d="M0 0 C1.98 0.66 3.96 1.32 6 2 C6 2.66 6 3.32 6 4 C6.66 4 7.32 4 8 4 C7.67 5.32 7.34 6.64 7 8 C5.83035398 6.8572081 4.66435444 5.71068285 3.5 4.5625 C2.8503125 3.92441406 2.200625 3.28632812 1.53125 2.62890625 C0 1 0 1 0 0 Z " fill="#013E68" transform="translate(109,97)"/>
<path d="M0 0 C2.625 -0.1875 2.625 -0.1875 5 0 C5.33 0.99 5.66 1.98 6 3 C3.36 3 0.72 3 -2 3 C-1.34 2.01 -0.68 1.02 0 0 Z " fill="#0C344C" transform="translate(419,144)"/>
<path d="M0 0 C2.31 0 4.62 0 7 0 C7 0.99 7 1.98 7 3 C5.02 3 3.04 3 1 3 C0.67 2.01 0.34 1.02 0 0 Z " fill="#073648" transform="translate(378,144)"/>
<path d="M0 0 C0.75 1.75 0.75 1.75 1 4 C-0.9375 6.25 -0.9375 6.25 -3 8 C-3.99 7.67 -4.98 7.34 -6 7 C-5.67 6.34 -5.34 5.68 -5 5 C-4.34 5 -3.68 5 -3 5 C-2.5359375 4.0409375 -2.5359375 4.0409375 -2.0625 3.0625 C-1 1 -1 1 0 0 Z " fill="#014C6D" transform="translate(87,136)"/>
<path d="M0 0 C0.33 0.66 0.66 1.32 1 2 C0.67 2.66 0.34 3.32 0 4 C-0.66 4 -1.32 4 -2 4 C-2 4.66 -2 5.32 -2 6 C-4 7.625 -4 7.625 -6 9 C-6 5.06368636 -4.57142871 3.87394974 -2 1 C-1.34 0.67 -0.68 0.34 0 0 Z " fill="#38ACD5" transform="translate(70,126)"/>
<path d="M0 0 C0.33 0.66 0.66 1.32 1 2 C1.61875 2.28875 2.2375 2.5775 2.875 2.875 C5.36796335 4.19480413 6.45147781 5.67721672 8 8 C7.01 8.495 7.01 8.495 6 9 C3.35247996 6.42215154 1.05567935 4.08351902 -1 1 C-0.67 0.67 -0.34 0.34 0 0 Z " fill="#054B72" transform="translate(127,113)"/>
<path d="M0 0 C0 1.32 0 2.64 0 4 C-2.31 4 -4.62 4 -7 4 C-5.34072249 0.68144498 -3.61238217 0 0 0 Z " fill="#F2FDFF" transform="translate(219,105)"/>
<path d="M0 0 C2.31 1.98 4.62 3.96 7 6 C6.01 6.66 5.02 7.32 4 8 C0 3.375 0 3.375 0 0 Z " fill="#075276" transform="translate(88,158)"/>
<path d="M0 0 C0.99 0 1.98 0 3 0 C2.6875 1.9375 2.6875 1.9375 2 4 C1.01 4.33 0.02 4.66 -1 5 C-1.66 5.66 -2.32 6.32 -3 7 C-3 3.47190093 -2.35723489 2.53184488 0 0 Z " fill="#0A87BB" transform="translate(85,133)"/>
<path d="M0 0 C0.66 0.33 1.32 0.66 2 1 C1.65120368 4.25543229 0.97866739 5.01873107 -1.5625 7.25 C-2.7690625 8.11625 -2.7690625 8.11625 -4 9 C-3.625 6.5625 -3.625 6.5625 -3 4 C-2.34 3.67 -1.68 3.34 -1 3 C-0.67 2.01 -0.34 1.02 0 0 Z " fill="#0578A3" transform="translate(128,131)"/>
<path d="M0 0 C0.66 0.33 1.32 0.66 2 1 C2 1.99 2 2.98 2 4 C-0.31 4 -2.62 4 -5 4 C-5 3.34 -5 2.68 -5 2 C-2.625 0.9375 -2.625 0.9375 0 0 Z " fill="#204658" transform="translate(315,111)"/>
<path d="M0 0 C2.475 0.495 2.475 0.495 5 1 C4.34 1.66 3.68 2.32 3 3 C2.53993654 5.20250992 2.53993654 5.20250992 2.375 7.625 C2.30023438 8.44226563 2.22546875 9.25953125 2.1484375 10.1015625 C2.09945312 10.72804688 2.05046875 11.35453125 2 12 C1.67 12 1.34 12 1 12 C0.67 8.04 0.34 4.08 0 0 Z " fill="#1E495E" transform="translate(245,106)"/>
<path d="M0 0 C0.33 0 0.66 0 1 0 C1 2.97 1 5.94 1 9 C-0.32 9.33 -1.64 9.66 -3 10 C-2.01 6.7 -1.02 3.4 0 0 Z " fill="#043E56" transform="translate(248,112)"/>
<path d="M0 0 C1.98 0.66 3.96 1.32 6 2 C6 2.99 6 3.98 6 5 C6.66 5.33 7.32 5.66 8 6 C5 6 5 6 3.61328125 4.6875 C2.40885417 3.125 1.20442708 1.5625 0 0 Z " fill="#38ADD0" transform="translate(86,98)"/>
<path d="M0 0 C1.65 0 3.3 0 5 0 C3.35 1.98 1.7 3.96 0 6 C-1 3 -1 3 0 0 Z " fill="#0D75A3" transform="translate(108,151)"/>
<path d="M0 0 C0.66 0.66 1.32 1.32 2 2 C1.01 2.99 0.02 3.98 -1 5 C-2.32 4.34 -3.64 3.68 -5 3 C-2 1 -2 1 0 0 Z " fill="#0A7A9E" transform="translate(79,142)"/>
<path d="M0 0 C0.66 0.33 1.32 0.66 2 1 C1.45773019 4.79588866 -0.20127563 6.47211993 -3 9 C-2.67 7.35 -2.34 5.7 -2 4 C-1.34 4 -0.68 4 0 4 C0 2.68 0 1.36 0 0 Z " fill="#1378A0" transform="translate(135,123)"/>
<path d="M0 0 C0.99 0.33 1.98 0.66 3 1 C2.6875 2.9375 2.6875 2.9375 2 5 C1.01 5.33 0.02 5.66 -1 6 C-1.042721 4.33388095 -1.04063832 2.66617115 -1 1 C-0.67 0.67 -0.34 0.34 0 0 Z " fill="#2FAEDD" transform="translate(94,119)"/>
</svg>
