<?xml version="1.0" encoding="UTF-8"?>
<!-- Generator: Adobe Illustrator 24.0.1, SVG Export Plug-In . SVG Version: 6.00 Build 0)  -->
<svg xmlns="http://www.w3.org/2000/svg" xmlns:xlink="http://www.w3.org/1999/xlink" id="Layer_1" x="0px" y="0px" viewBox="0 0 2204.02 538.1" style="enable-background:new 0 0 2204.02 538.1;" xml:space="preserve">
<style type="text/css">
	.st0{fill:#FFFFFF;}
</style>
<g>
	<g>
		<path class="st0" d="M400.53,82.43c5.79-8.6,0.52-19.42-9.45-19.42h-90.5h-40.28h-29.58c-33.75,0-60.6,8.97-80.53,26.93    c-19.8,17.81-31.2,43.44-34.26,76.83h-0.02l-7.66,87.47h0.02c-2.81,33.42,4.11,59.07,20.81,76.89    c16.8,17.94,42.08,26.92,75.83,26.92h36.63l0.01-0.23c7.22-1,11.18-5.42,11.86-13.23l3.75-42.93c0.68-7.78-5.08-14.1-12.86-14.1    h-20.4c-13.24,0-22.49-2.89-27.76-8.65c-5.27-5.77-7.3-15.5-6.1-29.17l6.86-78.41c1.19-13.67,4.93-23.4,11.2-29.16    c6.27-5.77,16.03-8.66,29.27-8.66h16.77h26.81h64.65c12.76,0,25.16-6.78,32.56-17.79L400.53,82.43z"></path>
		<path class="st0" d="M92.41,455.67c-5.79,8.6-0.52,19.42,9.45,19.42h92.82h40.28h29.58c33.75,0,60.6-8.97,80.53-26.93    c19.8-17.81,31.21-43.44,34.26-76.83h0.02l7.66-87.47h-0.02c2.81-33.42-4.11-59.07-20.81-76.89    c-16.8-17.94-42.08-26.92-75.83-26.92h-36.63l-0.01,0.23c-7.22,1-11.18,5.42-11.86,13.22l-3.75,42.95    c-0.68,7.78,5.07,14.1,12.86,14.1h20.4c13.24,0,22.49,2.89,27.76,8.65c5.27,5.77,7.3,15.5,6.1,29.16l-6.86,78.42    c-1.19,13.67-4.93,23.4-11.2,29.16c-6.27,5.77-16.03,8.66-29.27,8.66h-16.77H214.3h-66.97c-12.76,0-25.16,6.77-32.56,17.79    L92.41,455.67z"></path>
	</g>
	<path class="st0" d="M644.18,475.09H434.62c-8.97,0-13.07-4.48-12.29-13.45l33.7-385.18c0.79-8.97,5.67-13.45,14.64-13.45h209.56   c8.55,0,12.43,4.48,11.64,13.45l-3.81,43.59c-0.79,8.97-5.45,13.45-14,13.45H540.13c-5.13,0-7.9,2.36-8.31,7.06l-7.29,83.32   c-0.42,4.7,1.95,7.04,7.08,7.04h109.59c8.97,0,13.07,4.49,12.29,13.45l-3.82,43.58c-0.79,8.97-5.66,13.46-14.63,13.46h-109.6   c-5.12,0-7.89,2.36-8.3,7.04l-7.79,89.09c-0.42,4.7,1.95,7.04,7.08,7.04h133.94c8.55,0,12.43,4.49,11.64,13.46l-3.81,43.58   C657.39,470.61,652.73,475.09,644.18,475.09"></path>
	<path class="st0" d="M870.22,475.09h-69.85c-33.76,0-59.04-8.97-75.83-26.92c-16.81-17.94-23.73-43.79-20.77-77.54l17.77-203.17   c2.96-33.74,14.4-59.6,34.34-77.54c19.93-17.94,46.78-26.92,80.54-26.92h69.85c33.33,0,58.49,9.08,75.49,27.24   c17,18.16,24.03,43.89,21.12,77.22l-2.63,30.13c-0.82,9.4-5.95,14.1-15.34,14.1h-53.83c-8.97,0-13.05-4.7-12.23-14.1l2.3-26.28   c1.2-13.66-0.83-23.38-6.1-29.16c-5.27-5.76-14.73-8.65-28.4-8.65h-43.59c-13.24,0-22.99,2.89-29.27,8.65   c-6.27,5.77-10,15.5-11.2,29.16l-17.1,195.48c-1.19,13.67,0.84,23.38,6.1,29.16c5.27,5.76,14.52,8.65,27.77,8.65h43.58   c13.66,0,23.64-2.89,29.91-8.65c6.28-5.77,10.01-15.49,11.21-29.16l2.3-26.28c0.82-9.39,5.72-14.1,14.69-14.1h53.83   c9.39,0,13.68,4.71,12.86,14.1l-2.63,30.13c-2.92,33.33-14.46,59.07-34.63,77.22C930.29,466.01,903.55,475.09,870.22,475.09"></path>
	<path class="st0" d="M1168,475.09h-53.83c-9.4,0-13.71-4.48-12.92-13.45l28.1-321.08c0.4-4.7-1.74-7.06-6.43-7.06h-73.06   c-8.97,0-13.07-4.48-12.29-13.45l3.81-43.59c0.79-8.97,5.67-13.45,14.64-13.45h242.24c8.97,0,13.07,4.48,12.29,13.45l-3.81,43.59   c-0.79,8.97-5.66,13.45-14.64,13.45h-73.05c-5.13,0-7.9,2.36-8.31,7.06l-28.1,321.08C1181.84,470.61,1176.97,475.09,1168,475.09"></path>
	<path class="st0" d="M1433.5,76.46l-33.7,385.17c-0.79,8.97-5.67,13.46-14.64,13.46h-54.47c-8.97,0-13.07-4.49-12.29-13.46   l33.7-385.17c0.8-8.97,5.67-13.45,14.64-13.45h54.47C1430.18,63.01,1434.28,67.49,1433.5,76.46"></path>
	<path class="st0" d="M1903.89,404.59h45.51c13.66,0,23.64-2.89,29.91-8.65c6.27-5.77,10.01-15.49,11.2-29.16l17.1-195.48   c1.2-13.66-0.83-23.38-6.1-29.16c-5.27-5.76-14.73-8.65-28.41-8.65h-45.5c-13.68,0-23.55,2.89-29.6,8.65   c-6.06,5.77-9.69,15.5-10.88,29.16l-17.11,195.48c-1.19,13.67,0.73,23.38,5.79,29.16C1880.86,401.71,1890.22,404.59,1903.89,404.59    M1956.69,475.09h-71.78c-33.75,0-59.04-8.97-75.83-26.92c-16.8-17.94-23.73-43.79-20.77-77.54l17.77-203.17   c2.96-33.74,14.4-59.6,34.34-77.54c19.94-17.94,46.79-26.92,80.54-26.92h71.78c33.74,0,59.03,8.97,75.83,26.92   c16.8,17.94,23.73,43.8,20.77,77.54l-17.77,203.17c-2.96,33.75-14.41,59.6-34.34,77.54   C2017.29,466.12,1990.43,475.09,1956.69,475.09"></path>
	<path class="st0" d="M1684.35,200.8h54.48c8.97,0,13.87-4.7,14.69-14.1l1.67-19.23c2.92-33.33-4.02-59.07-20.8-77.23   c-16.79-18.15-41.84-27.23-75.16-27.23h-67.93c-33.75,0-60.6,8.97-80.54,26.91c-19.94,17.96-31.39,43.81-34.34,77.55l-17.77,203.16   c-2.96,33.75,3.97,59.61,20.77,77.55c16.8,17.93,42.08,26.92,75.83,26.92h67.93c33.33,0,59.97-9.08,79.93-27.24   c19.95-18.15,31.4-43.9,34.31-77.23l9.37-107.02c0.87-9.83-3.63-14.75-13.45-14.75h-112.15h-14.72c-9.97,0-17.12,10.82-12.85,19.42   l16.54,33.28c5.47,11.03,16.69,17.79,29.46,17.79h13.87c4.69,0,6.84,2.36,6.43,7.06l-3.53,40.37c-1.2,13.68-4.83,23.4-10.88,29.17   c-6.06,5.76-15.94,8.65-29.6,8.65h-41.66c-13.24,0-22.49-2.89-27.76-8.65c-5.27-5.77-7.3-15.49-6.1-29.17l17.1-195.46   c1.19-13.67,4.93-23.4,11.2-29.16c6.27-5.77,16.03-8.66,29.27-8.66h41.66c13.66,0,23.03,2.89,28.08,8.66   c5.03,5.76,6.96,15.49,5.77,29.16l-1.35,15.38C1671.3,196.1,1675.38,200.8,1684.35,200.8"></path>
</g>
<g>
	<path class="st0" d="M2137.43,86.35c0,8.28-6.5,14.77-14.95,14.77c-8.37,0-15.04-6.5-15.04-14.77c0-8.1,6.67-14.6,15.04-14.6   C2130.93,71.76,2137.43,78.26,2137.43,86.35z M2111.17,86.35c0,6.5,4.81,11.66,11.39,11.66c6.41,0,11.12-5.16,11.12-11.57   c0-6.5-4.72-11.75-11.21-11.75C2115.98,74.7,2111.17,79.95,2111.17,86.35z M2120.16,94.01h-3.38v-14.6   c1.33-0.27,3.2-0.45,5.61-0.45c2.76,0,4.01,0.45,5.07,1.07c0.8,0.62,1.42,1.78,1.42,3.2c0,1.6-1.25,2.85-3.03,3.38v0.18   c1.42,0.53,2.22,1.6,2.67,3.56c0.45,2.23,0.71,3.12,1.07,3.65h-3.65c-0.45-0.53-0.71-1.87-1.16-3.56c-0.27-1.6-1.16-2.31-3.03-2.31   h-1.6V94.01z M2120.25,85.73h1.6c1.87,0,3.38-0.62,3.38-2.14c0-1.33-0.98-2.23-3.12-2.23c-0.89,0-1.51,0.09-1.87,0.18V85.73z"></path>
</g>
</svg>
