<svg width="465" height="102.2" xmlns="http://www.w3.org/2000/svg" xml:space="preserve" version="1.1">

 <g>
  <title>Layer 1</title>
  <path stroke="null" id="svg_2" fill="#FFFFFF" d="m127.672,60.92897l0,-17.1997c0,-2.05984 -0.72095,-3.39874 -2.36882,-4.11969c-1.54488,-0.61795 -3.9137,-1.23591 -7.10646,-1.23591l-7.31245,0l0,27.29294l7.00347,0c3.70772,0 6.28253,-0.20598 7.82741,-0.72095c1.23591,-0.51496 1.95685,-1.95685 1.95685,-4.0167m9.68127,-16.99372l0,16.99372c0,4.63465 -1.44189,8.03339 -4.11969,9.57828c-2.78079,1.64788 -7.9304,2.47181 -14.93387,2.47181l-17.1997,0l0,-41.71185l17.09671,0c6.79749,0 11.74111,0.72095 14.72789,2.6778c2.88378,1.75087 4.42867,5.14961 4.42867,9.99025m16.99372,28.94081l-9.06332,0l0,-30.89767l9.06332,0l0,30.89767zm0,-34.60539l-9.06332,0l0,-7.41544l9.06332,0l0,7.41544zm28.11688,10.71119l-3.19276,0c-2.47181,0 -4.32567,0.30898 -5.56158,1.23591c-1.3389,0.72095 -1.95685,2.16284 -1.95685,4.0167l0,18.64159l-9.06332,0l0,-30.89767l8.65135,0l0,5.3556c0,-1.54488 0.92693,-2.88378 2.47181,-4.11969c1.64788,-1.23591 3.50174,-1.95685 5.14961,-1.95685l3.29575,0l0.20598,7.72442zm24.30616,5.56158l0,-4.42867c0,-0.92693 -0.30898,-1.64788 -1.23591,-2.26583c-0.61795,-0.41197 -2.16284,-0.72095 -4.0167,-0.72095c-2.16284,0 -3.70772,0.20598 -4.42867,0.72095c-0.61795,0.41197 -1.23591,1.3389 -1.23591,2.26583l0,4.42867l10.91718,0zm8.65135,5.3556l-19.46553,0l0,2.78079c0,1.75087 0.51496,2.98677 1.75087,3.81071c1.23591,0.92693 3.50174,1.23591 6.69449,1.23591c2.98677,0 6.38552,-0.41197 10.19623,-1.3389l0,6.07654c-3.81071,0.72095 -7.9304,1.23591 -11.74111,1.23591c-10.71119,0 -15.8608,-3.39874 -15.8608,-10.19623l0,-11.12316c0,-3.9137 1.23591,-6.79749 3.70772,-8.54835c2.47181,-1.64788 6.28253,-2.47181 11.22615,-2.47181c4.63465,0 8.23938,0.72095 10.40221,2.36882c2.26583,1.54488 3.39874,4.42867 3.39874,8.65135l-0.30898,7.51843zm32.03058,12.56505c-3.60473,0.61795 -7.00347,1.02992 -10.29922,1.02992c-1.54488,0 -2.78079,0 -3.70772,-0.10299c-0.92693,0 -2.05984,-0.10299 -3.50174,-0.30898s-2.47181,-0.41197 -3.39874,-0.92693c-0.72095,-0.41197 -1.64788,-1.13291 -2.47181,-1.75087c-0.72095,-0.61795 -1.44189,-1.75087 -1.95685,-2.98677c-0.30898,-1.23591 -0.51496,-2.78079 -0.51496,-4.42867l0,-10.40221c0,-1.54488 0.10299,-2.88378 0.41197,-4.0167c0.30898,-1.23591 0.72095,-2.16284 1.3389,-2.88378c0.41197,-0.72095 1.23591,-1.44189 2.16284,-2.05984c0.92693,-0.51496 1.75087,-0.92693 2.47181,-1.23591c0.72095,-0.20598 1.75087,-0.41197 3.08977,-0.61795c1.3389,-0.10299 2.26583,-0.20598 3.08977,-0.20598c0.72095,0 1.95685,0 3.39874,0c2.26583,0 5.14961,0.30898 9.06332,1.23591l0,6.17953c-4.32567,-1.13291 -7.41544,-1.54488 -9.99025,-1.54488c-4.11969,0 -6.28253,1.44189 -6.28253,4.32567l0,11.12316c0,3.19276 2.26583,4.84063 6.79749,4.84063c2.16284,0 5.2526,-0.41197 9.68127,-1.44189l0.61795,6.17953zm25.43908,0.72095c-1.75087,0.20598 -3.50174,0.30898 -4.94363,0.30898s-2.6778,0 -3.70772,-0.10299s-2.16284,-0.30898 -3.29575,-0.61795c-1.02992,-0.30898 -2.05984,-0.92693 -2.78079,-1.54488c-0.61795,-0.61795 -1.3389,-1.54488 -1.75087,-2.78079c-0.41197,-1.23591 -0.61795,-2.6778 -0.61795,-4.32567l0,-16.47875l-6.17953,0l0,-5.76756l6.17953,0l0,-9.06332l9.06332,0l0,8.96032l8.34237,0l0,5.76756l-8.34237,0l0,14.62489c0,2.16284 0.30898,3.60473 0.92693,4.32567s2.05984,1.02992 4.0167,1.02992c0.61795,0 1.75087,-0.10299 3.29575,-0.30898l-0.20598,5.97355z" class="st0"/>
  <path stroke="null" id="svg_3" fill="#FFFFFF" d="m306.22488,57.02476l-4.79325,-15.12536l-0.21303,0l-4.79325,15.12536l9.79953,0zm15.23187,17.04265l-9.58649,0l-3.51505,-10.65166l-14.37974,0l-3.51505,10.65166l-9.16043,0l14.48626,-40.15675l11.39727,0l14.27322,40.15675zm24.28578,-9.05391l0,-12.03637c0,-1.49123 -0.31955,-2.5564 -1.17168,-3.08898c-0.74562,-0.53258 -2.44988,-0.74562 -4.89976,-0.74562c-2.66291,0 -4.26066,0.21303 -4.89976,0.74562c-0.53258,0.53258 -0.85213,1.70427 -0.85213,3.51505l0,11.39727c0,1.59775 0.31955,2.76943 0.85213,3.40853s2.13033,0.85213 4.4737,0.85213c2.87595,0 4.58021,-0.21303 5.43235,-0.74562c0.6391,-0.6391 1.06517,-1.70427 1.06517,-3.30201m8.73436,9.05391l-8.52133,0l0,-3.40853c-0.6391,1.17168 -1.2782,2.02382 -1.81078,2.44988s-1.38472,0.85213 -2.5564,1.17168c-1.17168,0.21303 -2.66291,0.31955 -4.68673,0.31955c-4.89976,0 -8.30829,-0.6391 -9.90604,-2.02382c-1.49123,-1.2782 -2.34336,-4.04763 -2.34336,-8.52133l0,-11.50379c0,-3.40853 0.85213,-5.64538 2.76943,-7.03009c1.81078,-1.2782 4.68673,-2.02382 8.84088,-2.02382c2.87595,0 4.79325,0.21303 6.07145,0.74562c1.17168,0.53258 2.23685,1.59775 3.30201,3.1955l0,-16.7231l8.84088,0l0,43.35225l0,0zm53.15178,0l-8.84088,0l0,-20.77073c0,-1.81078 -0.21303,-2.98246 -0.53258,-3.51505c-0.42607,-0.42607 -1.59775,-0.74562 -3.51505,-0.74562c-2.44988,0 -3.8346,0.21303 -4.36718,0.74562c-0.53258,0.42607 -0.74562,1.59775 -0.74562,3.51505l0,20.66422l-8.84088,0l0,-20.66422c0,-1.81078 -0.21303,-2.98246 -0.53258,-3.51505c-0.42607,-0.42607 -1.59775,-0.74562 -3.51505,-0.74562c-2.44988,0 -3.8346,0.21303 -4.36718,0.74562c-0.53258,0.42607 -0.74562,1.59775 -0.74562,3.51505l0,20.66422l-8.84088,0l0,-29.82464l8.84088,0l0,3.62156c0.53258,-2.76943 3.51505,-4.26066 8.62784,-4.26066c2.76943,0 4.79325,0.31955 6.28448,1.17168c1.38472,0.6391 2.34336,1.81078 2.76943,3.40853c0.42607,-1.49123 1.38472,-2.66291 2.76943,-3.40853c1.38472,-0.6391 3.51505,-1.06517 6.391,-1.06517c3.8346,0 6.391,0.6391 7.66919,2.13033s1.81078,3.62156 1.81078,6.49751l-0.31955,21.8359zm16.93614,0l-8.84088,0l0,-29.93116l8.84088,0l0,29.93116zm0,-33.44621l-8.84088,0l0,-7.34964l8.84088,0l0,7.34964zm36.21564,33.44621l-8.84088,0l0,-20.77073c0,-1.59775 -0.21303,-2.76943 -0.74562,-3.40853c-0.53258,-0.53258 -1.81078,-0.74562 -3.8346,-0.74562c-2.5564,0 -4.15415,0.21303 -4.68673,0.74562c-0.6391,0.53258 -0.95865,1.59775 -0.95865,3.40853l0,20.77073l-8.84088,0l0,-29.93116l8.73436,0l0,3.62156c0.6391,-2.76943 3.8346,-4.26066 9.26694,-4.26066c3.8346,0 6.49751,0.6391 7.98874,2.13033c1.38472,1.38472 2.23685,3.62156 2.23685,6.49751l-0.31955,21.94242z" class="st0"/>
  <polygon id="svg_4" fill="#969696" points="88,52.6 88,52.6 38.4,3 24.2,17.2 59.7,52.6 24.3,88 38.4,102.2 " class="st1"/>
  <polygon id="svg_5" fill="#FFFFFF" points="85,49.6 85,49.6 35.4,0 21.2,14.2 56.7,49.6 21.3,85 35.4,99.2 " class="st0"/>
  <polyline id="svg_6" fill="#969696" points="10.6,74.4 14.2,78 42.5,49.6 38.7,45.8 " class="st1"/>
  <polyline id="svg_7" fill="#FFFFFF" points="38.7,45.9 14.2,21.3 0,35.4 14.2,49.6 0,63.8 10.6,74.4 " class="st0"/>
 </g>
</svg>