<?xml version="1.0" encoding="UTF-8"?>
<svg version="1.1" xmlns="http://www.w3.org/2000/svg" width="204" height="46">
<path d="M0 0 C1.32 0 2.64 0 4 0 C4.66 0.66 5.32 1.32 6 2 C6.99 1.67 7.98 1.34 9 1 C9.66 1.33 10.32 1.66 11 2 C10.67 3.32 10.34 4.64 10 6 C10.64066406 5.855625 11.28132813 5.71125 11.94140625 5.5625 C20.66843371 3.68963569 26.72613219 3.51626619 35 7 C35 9.64 35 12.28 35 15 C34.01 14.67 33.02 14.34 32 14 C27.5393637 12.71904334 22.27273753 11.86363123 18 14 C18.01385212 15.95294187 18.01385212 15.95294187 19 18 C21.83500482 19.37520718 21.83500482 19.37520718 25.25 20.375 C30.93508005 22.42811892 34.14091019 23.59949702 37 29 C37.61755598 32.547516 37.31398262 35.74406951 36.4375 39.25 C33.39756971 42.95078471 30.03760192 44.72407474 25.375 45.35546875 C19.23274243 45.53461793 14.57909092 44.5263808 9 42 C9 40.35 9 38.7 9 37 C6.69 36.67 4.38 36.34 2 36 C2.66 37.98 3.32 39.96 4 42 C1.8125 43.1875 1.8125 43.1875 -1 44 C-3.8125 42.625 -3.8125 42.625 -6 41 C-6.33 42.65 -6.66 44.3 -7 46 C-8.65 46 -10.3 46 -12 46 C-12.495 43.525 -12.495 43.525 -13 41 C-16.11785113 41.64644661 -16.11785113 41.64644661 -17 44 C-18.65 43.67 -20.3 43.34 -22 43 C-21.67 40.69 -21.34 38.38 -21 36 C-24.465 36.495 -24.465 36.495 -28 37 C-28.6875 34.75 -28.6875 34.75 -29 32 C-27.5625 29.6875 -27.5625 29.6875 -26 28 C-27.65 27.67 -29.3 27.34 -31 27 C-31 25.35 -31 23.7 -31 22 C-29.35 21.67 -27.7 21.34 -26 21 C-26.515625 20.443125 -27.03125 19.88625 -27.5625 19.3125 C-29 17 -29 17 -28.6875 14.25 C-28.460625 13.5075 -28.23375 12.765 -28 12 C-25.69 12.33 -23.38 12.66 -21 13 C-21.33 10.69 -21.66 8.38 -22 6 C-19.75 5.3125 -19.75 5.3125 -17 5 C-14.6875 6.4375 -14.6875 6.4375 -13 8 C-12.67 6.35 -12.34 4.7 -12 3 C-11.2575 3.04125 -10.515 3.0825 -9.75 3.125 C-6.91241048 2.99601866 -5.41226062 2.42948778 -3 1 C-2.01 1.66 -1.02 2.32 0 3 C0 2.01 0 1.02 0 0 Z M3 8 C2.67 9.32 2.34 10.64 2 12 C2.99 12.33 3.98 12.66 5 13 C5.99 12.34 6.98 11.68 8 11 C6.35 10.01 4.7 9.02 3 8 Z M-16.25 17.5625 C-18.56757865 20.79055597 -18.9305855 23.04337373 -19 27 C-17.78392788 29.88017082 -16.69696456 31.45238499 -14.25 33.375 C-10.93564594 34.29565391 -8.32691444 33.72587224 -5 33 C-4.01 32.34 -3.02 31.68 -2 31 C1.38992017 30.4541654 4.61059417 30.44684897 8 31 C10.9375 33.4375 10.9375 33.4375 13 36 C15.92654527 36.97551509 17.94654996 37.16478088 21 37.1875 C21.86625 37.20167969 22.7325 37.21585938 23.625 37.23046875 C26.26721537 37.16255938 26.26721537 37.16255938 29 35 C29.08145815 32.58306538 29.08145815 32.58306538 28 30 C25.48181166 28.66878588 23.28985486 27.71647028 20.625 26.8125 C13.22101634 24.14734423 13.22101634 24.14734423 10 22 C10.33 23.32 10.66 24.64 11 26 C8.03 25.505 8.03 25.505 5 25 C4.67 25.99 4.34 26.98 4 28 C2.68 28 1.36 28 0 28 C0 27.01 0 26.02 0 25 C-1.65 25.33 -3.3 25.66 -5 26 C-5.33 24.68 -5.66 23.36 -6 22 C-7.32 21.67 -8.64 21.34 -10 21 C-9.67 19.35 -9.34 17.7 -9 16 C-12.1685371 15.64794032 -13.59267675 15.71713663 -16.25 17.5625 Z " fill="#FEFEFE" transform="translate(167,0)"/>
<path d="M0 0 C2.97 0 5.94 0 9 0 C11.64 8.25 14.28 16.5 17 25 C19.64 16.75 22.28 8.5 25 0 C27.64 0 30.28 0 33 0 C33.23710693 0.69150146 33.47421387 1.38300293 33.71850586 2.09545898 C34.78849543 5.21051561 35.86293565 8.32401869 36.9375 11.4375 C37.49727539 13.07041992 37.49727539 13.07041992 38.06835938 14.73632812 C38.42607422 15.77080078 38.78378906 16.80527344 39.15234375 17.87109375 C39.6472229 19.30859985 39.6472229 19.30859985 40.15209961 20.77514648 C40.80334076 22.93965248 40.80334076 22.93965248 42 24 C44.64 16.08 47.28 8.16 50 0 C52.64 0 55.28 0 58 0 C57.4050829 5.20626453 56.19937085 9.94186202 54.49609375 14.90234375 C54.13198143 15.98619102 54.13198143 15.98619102 53.76051331 17.0919342 C52.99184073 19.37574819 52.2148266 21.65661889 51.4375 23.9375 C50.91155318 25.49525503 50.3861571 27.05319612 49.86132812 28.61132812 C48.58057492 32.40973253 47.2923382 36.20552235 46 40 C43.36 40 40.72 40 38 40 C34.73578095 32.08563649 31.84865362 24.07118524 29 16 C26.36 23.92 23.72 31.84 21 40 C18.36 40 15.72 40 13 40 C9.61492919 31.97854945 6.89073171 23.79206962 4.25 15.5 C3.83489245 14.2134587 3.41952939 12.92699982 3.00390625 11.640625 C0 2.25965532 0 2.25965532 0 0 Z " fill="#FEFEFE" transform="translate(0,5)"/>
<path d="M0 0 C2.97 0 5.94 0 9 0 C11.37586152 2.40064235 12.77017262 4.12029167 14.4375 6.9375 C17.04919309 11.65740769 17.04919309 11.65740769 21 15 C21.268125 14.28457031 21.53625 13.56914062 21.8125 12.83203125 C23.02324146 9.94457218 24.35721328 7.35307941 26 4.6875 C26.515625 3.80449219 27.03125 2.92148438 27.5625 2.01171875 C30 0 30 0 40 0 C40 13.2 40 26.4 40 40 C37.03 40 34.06 40 31 40 C30.505 27.625 30.505 27.625 30 15 C27.03 19.29 24.06 23.58 21 28 C16.92402653 26.64134218 15.57848647 23.86597507 13.3125 20.4375 C11.889375 18.313125 10.46625 16.18875 9 14 C8.67 22.58 8.34 31.16 8 40 C5.36 40 2.72 40 0 40 C0 26.8 0 13.6 0 0 Z " fill="#FEFEFE" transform="translate(95,5)"/>
<path d="M0 0 C2.64 0 5.28 0 8 0 C8 5.28 8 10.56 8 16 C13.28 16 18.56 16 24 16 C24 10.72 24 5.44 24 0 C26.64 0 29.28 0 32 0 C32 13.2 32 26.4 32 40 C29.36 40 26.72 40 24 40 C24 34.72 24 29.44 24 24 C18.72 24 13.44 24 8 24 C8 29.28 8 34.56 8 40 C5.36 40 2.72 40 0 40 C0 26.8 0 13.6 0 0 Z " fill="#FEFEFE" transform="translate(60,5)"/>
<path d="M0 0 C1.65 0 3.3 0 5 0 C5.33 1.32 5.66 2.64 6 4 C5.01 4 4.02 4 3 4 C3.33 5.65 3.66 7.3 4 9 C3.01 9.33 2.02 9.66 1 10 C0.67 10.99 0.34 11.98 0 13 C-0.639375 13.309375 -1.27875 13.61875 -1.9375 13.9375 C-4.07934645 14.85794425 -4.07934645 14.85794425 -5.3125 16.6875 C-6.31858949 20.07161918 -5.80442399 22.59666774 -5 26 C-3.26312218 28.89479637 -1.94847318 29.01335881 1.375 29.875 C4.94012852 30.3347892 4.94012852 30.3347892 7.3125 28.5625 C11.30441964 26.24161649 15.47118765 26.38279902 20 27 C20.66 27.66 21.32 28.32 22 29 C21.625 31.625 21.625 31.625 21 34 C18.69 33.67 16.38 33.34 14 33 C14.66 34.98 15.32 36.96 16 39 C13.8125 40.1875 13.8125 40.1875 11 41 C8.1875 39.625 8.1875 39.625 6 38 C5.67 39.65 5.34 41.3 5 43 C3.35 43 1.7 43 0 43 C-0.495 40.525 -0.495 40.525 -1 38 C-4.11785113 38.64644661 -4.11785113 38.64644661 -5 41 C-6.65 40.67 -8.3 40.34 -10 40 C-9.67 37.69 -9.34 35.38 -9 33 C-12.465 33.495 -12.465 33.495 -16 34 C-16.6875 31.75 -16.6875 31.75 -17 29 C-15.5625 26.6875 -15.5625 26.6875 -14 25 C-15.65 24.67 -17.3 24.34 -19 24 C-19 22.35 -19 20.7 -19 19 C-17.35 18.67 -15.7 18.34 -14 18 C-14.515625 17.443125 -15.03125 16.88625 -15.5625 16.3125 C-17 14 -17 14 -16.6875 11.25 C-16.460625 10.5075 -16.23375 9.765 -16 9 C-13.69 9.33 -11.38 9.66 -9 10 C-9.33 7.69 -9.66 5.38 -10 3 C-7.75 2.3125 -7.75 2.3125 -5 2 C-2.6875 3.4375 -2.6875 3.4375 -1 5 C-0.67 3.35 -0.34 1.7 0 0 Z " fill="#73CB0B" transform="translate(155,3)"/>
<path d="M0 0 C1.32 0 2.64 0 4 0 C4.66 0.66 5.32 1.32 6 2 C6.99 1.67 7.98 1.34 9 1 C9.66 1.33 10.32 1.66 11 2 C10.67 3.32 10.34 4.64 10 6 C11.32 6 12.64 6 14 6 C13.67 7.98 13.34 9.96 13 12 C13.99 12 14.98 12 16 12 C16 13.32 16 14.64 16 16 C15.01 16 14.02 16 13 16 C13.33 17.98 13.66 19.96 14 22 C12.68 22 11.36 22 10 22 C10.33 23.32 10.66 24.64 11 26 C7.25 27.125 7.25 27.125 5 26 C4.67 26.66 4.34 27.32 4 28 C2.68 28 1.36 28 0 28 C0 27.01 0 26.02 0 25 C-1.65 25.66 -3.3 26.32 -5 27 C-5.33 25.35 -5.66 23.7 -6 22 C-7.65 21.67 -9.3 21.34 -11 21 C-10.34 19.35 -9.68 17.7 -9 16 C-9.99 16 -10.98 16 -12 16 C-11.67 14.68 -11.34 13.36 -11 12 C-10.01 12 -9.02 12 -8 12 C-8.66 10.35 -9.32 8.7 -10 7 C-9.360625 6.7525 -8.72125 6.505 -8.0625 6.25 C-5.81258459 5.18437567 -5.81258459 5.18437567 -5.25 2.875 C-5.1675 2.25625 -5.085 1.6375 -5 1 C-2.525 1.99 -2.525 1.99 0 3 C0 2.01 0 1.02 0 0 Z M3 8 C2.67 9.32 2.34 10.64 2 12 C2.99 12.33 3.98 12.66 5 13 C5.99 12.34 6.98 11.68 8 11 C6.35 10.01 4.7 9.02 3 8 Z " fill="#D9DAD8" transform="translate(167,0)"/>
<path d="M0 0 C0 1.32 0 2.64 0 4 C1.65 4 3.3 4 5 4 C5.6875 5.75 5.6875 5.75 6 8 C5 10.25 5 10.25 3 12 C-0.47093932 12.43386742 -2.85928089 12.66235303 -5.9375 10.875 C-7.50422245 8.11019567 -7.38976435 6.11811483 -7 3 C-4.82602976 -0.26095535 -4.13231215 0 0 0 Z " fill="#74CB0F" transform="translate(170,8)"/>
</svg>
