<?xml version="1.0" encoding="UTF-8"?>
<svg version="1.1" xmlns="http://www.w3.org/2000/svg" width="2259" height="864">
<path d="M0 0 C0.33 0 0.66 0 1 0 C8.69623118 48.99933849 13.22016317 98.38938054 14 148 C14.02191406 149.20688477 14.04382813 150.41376953 14.06640625 151.65722656 C15.44448486 237.81010741 5.19989383 324.34794654 -45 490 C-45.45165527 491.10102051 -45.90331055 492.20204102 -46.36865234 493.33642578 C-69.45971614 549.24735604 -98.82237051 603.02742188 -138.453125 649.015625 C-140.86415137 651.84081541 -143.18602477 654.72022259 -145.5 657.625 C-149.5143606 662.56741171 -153.90854821 667.00898085 -158.453125 671.453125 C-160.54930699 673.54930699 -162.47805858 675.66492662 -164.375 677.9375 C-168.92356049 683.25866287 -174.19238097 687.84072674 -179.37744141 692.52587891 C-180.86061902 693.87337009 -182.32767859 695.23854772 -183.79296875 696.60546875 C-190.87343595 703.18392351 -198.33245107 709.13283139 -206 715 C-206.63067383 715.48758789 -207.26134766 715.97517578 -207.91113281 716.47753906 C-223.1551224 728.25384707 -239.24947198 738.50502732 -256 748 C-256.65339355 748.37334473 -257.30678711 748.74668945 -257.97998047 749.13134766 C-287.93032295 766.10146173 -321.34497074 777.25396442 -355 784 C-355.87624023 784.17644043 -356.75248047 784.35288086 -357.65527344 784.53466797 C-364.82228437 785.95094569 -371.66755274 787.06218099 -379 787 C-373.65618684 774.70349381 -367.97465668 762.60773355 -362.05081177 750.58062744 C-359.71714955 745.84225828 -357.39454327 741.09846921 -355.0703125 736.35546875 C-354.62005203 735.43737427 -354.16979156 734.51927979 -353.70588684 733.57336426 C-350.03289768 726.08009622 -346.41261755 718.56340387 -342.82666016 711.02807617 C-339.26625064 703.54698601 -335.66804045 696.08441272 -332.0625 688.625 C-327.6958097 679.58931802 -323.33874175 670.54914751 -319 661.5 C-314.72111109 652.57715117 -310.42842641 643.66103648 -306.125 634.75 C-305.83336975 634.1461145 -305.5417395 633.542229 -305.24127197 632.92004395 C-302.86276624 627.99511867 -300.48352017 623.07055115 -298.10424805 618.14599609 C-296.02748929 613.84749623 -293.95101769 609.54885782 -291.875 605.25 C-291.43731293 604.34368835 -291.43731293 604.34368835 -290.99078369 603.41906738 C-286.49258206 594.10352336 -282.01121558 584.77998918 -277.53857422 575.45214844 C-273.40886378 566.8430068 -269.25830273 558.24401154 -265.10449219 549.64648438 C-261.05777786 541.27000685 -257.02214271 532.88831098 -253 524.5 C-248.72108736 515.57716252 -244.42842644 506.66103654 -240.125 497.75 C-239.68755463 496.84417175 -239.68755463 496.84417175 -239.24127197 495.92004395 C-236.86276624 490.99511867 -234.48352017 486.07055115 -232.10424805 481.14599609 C-230.02748929 476.84749623 -227.95101769 472.54885782 -225.875 468.25 C-225.43731293 467.34368835 -225.43731293 467.34368835 -224.99078369 466.41906738 C-220.49258206 457.10352336 -216.01121558 447.77998918 -211.53857422 438.45214844 C-207.40886378 429.8430068 -203.25830273 421.24401154 -199.10449219 412.64648438 C-195.05777786 404.27000685 -191.02214271 395.88831098 -187 387.5 C-182.72108736 378.57716252 -178.42842644 369.66103654 -174.125 360.75 C-173.68755463 359.84417175 -173.68755463 359.84417175 -173.24127197 358.92004395 C-170.86276624 353.99511867 -168.48352017 349.07055115 -166.10424805 344.14599609 C-164.02748929 339.84749623 -161.95101769 335.54885782 -159.875 331.25 C-159.43731293 330.34368835 -159.43731293 330.34368835 -158.99078369 329.41906738 C-154.49258206 320.10352336 -150.01121558 310.77998918 -145.53857422 301.45214844 C-141.40886378 292.8430068 -137.25830273 284.24401154 -133.10449219 275.64648438 C-129.05777791 267.27000696 -125.02209785 258.88833242 -121 250.5 C-116.38390988 240.87286017 -111.74738039 231.25571403 -107.10247803 221.64245605 C-103.09664292 213.35134071 -99.10399074 205.05403945 -95.125 196.75 C-90.42546626 186.94386752 -85.68645324 177.15725498 -80.9375 167.375 C-75.95392588 157.10931543 -70.99244565 146.83395503 -66.07958984 136.53417969 C-62.42999715 128.88676631 -58.74952642 121.25441401 -55.0625 113.625 C-50.69598997 104.58923051 -46.3387421 95.54914823 -42 86.5 C-36.25627236 74.52249497 -30.48285307 62.55942442 -24.70352173 50.59907532 C-22.55914646 46.1602368 -20.41945978 41.71915493 -18.28125 37.27734375 C-12.27615681 24.80685011 -6.26005553 12.34514057 0 0 Z " fill="#168E7F" transform="translate(379,0)"/>
<path d="M0 0 C19.8 0 39.6 0 60 0 C60 20.13 60 40.26 60 61 C32.775 61.495 32.775 61.495 5 62 C18.61962847 102.39919101 18.61962847 102.39919101 32.5625 142.6875 C38.32065779 159.08750206 43.93257694 175.53430727 49.5 192 C55.0885558 208.52805143 60.72182596 225.03723943 66.5 241.5 C72.70158948 259.16912559 78.73043789 276.89415276 84.72851562 294.63330078 C89.90903732 309.94971559 95.14524993 325.24362874 100.5 340.5 C106.70158948 358.16912559 112.73043789 375.89415276 118.72851562 393.63330078 C123.90903732 408.94971559 129.14524993 424.24362874 134.5 439.5 C140.69712245 457.15639845 146.72233883 474.86842992 152.71542358 492.59503174 C158.74509627 510.42457647 164.86281378 528.22044582 171.10546875 545.9765625 C173.91558371 553.97356116 176.70171481 561.97838368 179.41796875 570.0078125 C179.67846512 570.76770477 179.93896149 571.52759705 180.20735168 572.31051636 C181.21907349 575.32532864 182 577.7971787 182 581 C176.38159182 580.41002176 171.76834053 578.38197165 166.6875 576.0625 C165.80884277 575.66281006 164.93018555 575.26312012 164.02490234 574.85131836 C144.99815476 566.01710376 128.25345782 554.27519511 112.59130859 540.40771484 C111.11656093 539.10311297 109.63098792 537.8107761 108.14453125 536.51953125 C103.7114671 532.62299529 99.62355083 528.64950098 95.82421875 524.1328125 C93.72749607 521.68139797 91.52034238 519.3517558 89.3125 517 C78.98301657 505.65167526 70.23209475 492.92428496 62 480 C61.63342285 479.42523926 61.2668457 478.85047852 60.88916016 478.25830078 C53.51564372 466.58439342 47.22125125 454.31584487 41 442 C40.58717773 441.18515137 40.17435547 440.37030273 39.74902344 439.53076172 C3.23068036 366.81602569 -9.7587749 282.40946433 1 64 C1.33 63.01 1.66 62.02 2 61 C1.34 61 0.68 61 0 61 C0 40.87 0 20.74 0 0 Z " fill="#168E7F" transform="translate(438,283)"/>
<path d="M0 0 C0.64710938 0.33902344 1.29421875 0.67804688 1.9609375 1.02734375 C7.86753395 4.65125992 11.94257245 10.8851449 15 17 C15.67804688 16.20335937 16.35609375 15.40671875 17.0546875 14.5859375 C25.80910172 4.52494163 34.95678772 -2.75872811 48.69116211 -4.30249023 C51.44746692 -4.43577575 54.17821726 -4.46812387 56.9375 -4.4375 C57.90389404 -4.42920166 58.87028809 -4.42090332 59.8659668 -4.41235352 C71.15181068 -4.14461843 79.92777895 -1.15105134 88 7 C98.99276684 20.27474746 98.57012633 38.21541986 98.390625 54.46875 C98.38314459 56.48611891 98.3774602 58.50349519 98.37347412 60.52087402 C98.35835929 65.77505322 98.31920319 71.0287748 98.2746582 76.28277588 C98.22611421 82.61644538 98.20810396 88.95026975 98.18484497 95.28407288 C98.14634071 104.85636474 98.06958892 114.42765684 98 124 C85.13 124 72.26 124 59 124 C58.96261719 118.65296875 58.92523437 113.3059375 58.88671875 107.796875 C58.85640499 104.38799001 58.82523495 100.97915508 58.79101562 97.5703125 C58.73690794 92.17222777 58.6857907 86.77424207 58.65356445 81.37597656 C58.62735218 77.01858837 58.58682653 72.66153712 58.53681374 68.30435944 C58.52026519 66.65083288 58.50867678 64.99724821 58.50238609 63.34365082 C58.80877373 46.99048319 58.80877373 46.99048319 52.5625 32.375 C47.54946859 27.72877577 43.59094083 27.60758146 36.90625 27.76171875 C32.29873359 28.13948555 29.66930648 29.31832829 26.41796875 32.59375 C18.06767188 42.50845772 18.53611712 54.9899548 18.48828125 67.26171875 C18.47140278 68.90510878 18.45324837 70.54848614 18.43388367 72.19184875 C18.38672097 76.48082521 18.35669482 80.76975032 18.33044434 85.05889893 C18.29518028 90.22460369 18.23826518 95.39011139 18.18505096 100.55565643 C18.10693333 108.37041126 18.05602904 116.1849152 18 124 C5.13 124 -7.74 124 -21 124 C-21.04898438 118.62976563 -21.09796875 113.25953125 -21.1484375 107.7265625 C-21.18385547 104.3085758 -21.2198335 100.89061312 -21.2578125 97.47265625 C-21.3179381 92.05683981 -21.37607693 86.64105668 -21.421875 81.22509766 C-21.45896108 76.85481748 -21.50538177 72.48472396 -21.55806351 68.11460495 C-21.57648434 66.45383377 -21.59163685 64.79302278 -21.60334396 63.1321907 C-21.17118457 46.51874875 -21.17118457 46.51874875 -28 32 C-31.92225918 28.17831157 -35.20170912 27.68082904 -40.5 27.5 C-47.28836986 27.72396215 -50.53740823 29.3966887 -55.1875 34.3125 C-60.33528364 41.94542057 -61.0960852 49.49159453 -61.20532227 58.49584961 C-61.21522186 59.20888245 -61.22512146 59.92191528 -61.23532104 60.65655518 C-61.26664032 62.98845216 -61.29157505 65.32036944 -61.31640625 67.65234375 C-61.3370014 69.27902219 -61.3579985 70.90569559 -61.37937927 72.53236389 C-61.43433567 76.79509371 -61.4838605 81.0578697 -61.53222656 85.32067871 C-61.5915126 90.4453354 -61.65759385 95.5699085 -61.72252655 100.69449615 C-61.82020306 108.46294599 -61.90928652 116.23145168 -62 124 C-74.87 124 -87.74 124 -101 124 C-101 82.75 -101 41.5 -101 -1 C-88.13 -1 -75.26 -1 -62 -1 C-61.505 7.415 -61.505 7.415 -61 16 C-60.030625 14.824375 -59.06125 13.64875 -58.0625 12.4375 C-43.87435914 -3.59141762 -19.79887095 -10.907378 0 0 Z " fill="#168E7F" transform="translate(983,363)"/>
<path d="M0 0 C13.2 0 26.4 0 40 0 C40 23.1 40 46.2 40 70 C63.43 70 86.86 70 111 70 C111 46.9 111 23.8 111 0 C124.53 0 138.06 0 152 0 C152 57.75 152 115.5 152 175 C138.47 175 124.94 175 111 175 C111 151.57 111 128.14 111 104 C87.57 104 64.14 104 40 104 C40 127.43 40 150.86 40 175 C26.8 175 13.6 175 0 175 C0 117.25 0 59.5 0 0 Z " fill="#168E7F" transform="translate(1350,312)"/>
<path d="M0 0 C3.88221316 2.8699986 6.52748999 5.41035123 9.45703125 9.31640625 C9.78703125 5.35640625 10.11703125 1.39640625 10.45703125 -2.68359375 C23.32703125 -2.68359375 36.19703125 -2.68359375 49.45703125 -2.68359375 C49.54769778 13.32079227 49.6212246 29.32495543 49.66427994 45.32952785 C49.68481209 52.76250409 49.71275115 60.19530818 49.75878906 67.62817383 C49.79894606 74.11471134 49.82453177 80.60112405 49.83338523 87.08778244 C49.8385518 90.5151807 49.85049339 93.94222224 49.87995148 97.36950493 C50.06054935 121.01477148 48.93494555 143.22830529 31.70776367 161.25756836 C16.91731683 176.00294528 -2.90749365 181.59009237 -23.38798523 181.72998047 C-24.87838416 181.72769729 -26.36878403 181.72018951 -27.85913086 181.70751953 C-30.10787318 181.691389 -32.35482598 181.70749959 -34.60351562 181.7265625 C-47.05091932 181.74596397 -57.80449101 179.7183354 -69.54296875 175.31640625 C-69.54296875 164.42640625 -69.54296875 153.53640625 -69.54296875 142.31640625 C-64.97300256 143.4588978 -60.78944836 145.21725794 -56.47070312 147.05664062 C-47.95243753 150.5703162 -39.85902493 151.70732977 -30.66796875 151.69140625 C-29.69923828 151.68979492 -28.73050781 151.68818359 -27.73242188 151.68652344 C-20.71035277 151.56594245 -14.7812437 150.74507645 -8.54296875 147.31640625 C-7.47046875 146.73890625 -6.39796875 146.16140625 -5.29296875 145.56640625 C3.02759456 138.75867263 6.61999164 131.66456468 9.20703125 121.31640625 C9.59578765 116.65132949 9.53194559 111.99439087 9.45703125 107.31640625 C8.99554687 107.89648438 8.5340625 108.4765625 8.05859375 109.07421875 C0.69883047 117.88848071 -8.5697901 124.30823892 -20.22875977 125.61816406 C-23.11157139 125.75377851 -25.96967214 125.78421774 -28.85546875 125.75390625 C-29.8714917 125.74560791 -30.88751465 125.73730957 -31.93432617 125.72875977 C-46.22108586 125.40700137 -56.76742807 120.54203655 -66.73046875 110.25390625 C-80.12247837 94.31361949 -83.07778238 73.12617602 -81.34082031 52.97070312 C-79.2791261 33.94087658 -73.13117816 16.38130675 -57.7734375 3.84375 C-41.70896283 -7.15661707 -16.97982773 -11.2416371 0 0 Z M-32.79296875 32.44140625 C-40.81080066 42.76872235 -42.3235342 56.46571771 -40.98046875 69.12890625 C-39.47593306 78.23229941 -36.6429412 85.27303237 -29.38671875 91.16015625 C-22.84514966 95.26249619 -16.04302482 94.98741919 -8.54296875 94.31640625 C-2.28242962 92.66993376 1.95329989 88.63958268 5.45703125 83.31640625 C9.86615808 74.97709927 10.68476294 68.0385254 10.76953125 58.69140625 C10.79853516 57.64855469 10.82753906 56.60570312 10.85742188 55.53125 C10.9398515 45.37338366 8.39548958 37.33946166 1.28515625 29.9453125 C-4.57863895 24.72052062 -10.56244724 24.7791899 -18.1640625 24.97265625 C-24.47165461 25.61435348 -28.45501918 27.8994442 -32.79296875 32.44140625 Z " fill="#168E7F" transform="translate(2193.54296875,364.68359375)"/>
<path d="M0 0 C2.26506647 -0.00491997 4.53010639 -0.01282559 6.7951622 -0.02125549 C31.80484285 -0.10112935 56.89942237 0.38692313 81.68618393 4.05747986 C82.86785141 4.22779724 84.04951889 4.39811462 85.26699448 4.57359314 C105.40782609 7.5931551 126.65794178 11.36102501 143.68618393 23.24497986 C144.55823471 23.84246033 144.55823471 23.84246033 145.44790268 24.45201111 C150.68448768 28.39593785 154.25044104 33.41824238 155.24746323 39.88609314 C155.46462997 41.54874207 155.46462997 41.54874207 155.68618393 43.24497986 C98.11922753 43.94418999 40.55239092 44.50093776 -17.01719581 44.92914766 C-27.696837 45.0086318 -38.37646418 45.08993415 -49.05609169 45.1712315 C-68.11456444 45.31624946 -87.1730488 45.45967751 -106.23154068 45.60215759 C-124.60394667 45.73950941 -142.9763422 45.87817043 -161.34872818 46.01817322 C-181.59394567 46.17244538 -201.8391678 46.32607861 -222.08439893 46.47855133 C-223.69239844 46.4906617 -223.69239844 46.4906617 -225.33288279 46.50301672 C-227.48365779 46.51921474 -229.63443279 46.53541142 -231.78520781 46.55160673 C-239.18896043 46.60739241 -246.59270978 46.66359801 -253.99645805 46.71995735 C-262.99880187 46.78846414 -272.00115114 46.8561994 -281.00350777 46.92300243 C-285.57444473 46.95693671 -290.14537883 46.9911708 -294.71630669 47.02631187 C-314.58263401 47.17880178 -334.44675933 47.28857952 -354.31381607 47.24497986 C-354.64381607 45.59497986 -354.97381607 43.94497986 -355.31381607 42.24497986 C-351.41342238 40.877076 -347.61621081 39.8176214 -343.55453873 39.05918884 C-341.87104324 38.74210968 -341.87104324 38.74210968 -340.15353775 38.41862488 C-338.94057022 38.19503296 -337.72760269 37.97144104 -336.47787857 37.74107361 C-335.19610733 37.50193237 -333.91433609 37.26279114 -332.5937233 37.0164032 C-329.10419507 36.36658625 -325.61345345 35.72354827 -322.12220383 35.08304977 C-319.92891156 34.68066275 -317.73582926 34.27714515 -315.54275894 33.87355042 C-236.25368617 19.30114663 -156.45107058 8.12802062 -76.00790787 2.43638611 C-73.48389299 2.25706326 -70.96037665 2.07182294 -68.43686295 1.88560486 C-45.64538019 0.23646468 -22.84101667 0.04278174 0 0 Z " fill="#168E7F" transform="translate(358.31381607055664,760.7550201416016)"/>
<path d="M0 0 C13.2 0 26.4 0 40 0 C40.33 25.74 40.66 51.48 41 78 C43.31 74.04 45.62 70.08 48 66 C50.1490176 62.7043747 52.31349603 59.44013415 54.53515625 56.1953125 C55.13192673 55.31611145 55.7286972 54.4369104 56.34355164 53.53106689 C57.60288024 51.67582659 58.86375056 49.82163193 60.12609863 47.96844482 C70.35373689 32.95000622 80.51672777 17.91542361 90.06152344 2.45068359 C91 1 91 1 92 0 C93.5348297 -0.09319449 95.07392082 -0.117458 96.61157227 -0.11352539 C97.59251358 -0.11344986 98.5734549 -0.11337433 99.5841217 -0.11329651 C100.6507756 -0.10813522 101.7174295 -0.10297394 102.81640625 -0.09765625 C104.44569313 -0.09553383 104.44569313 -0.09553383 106.1078949 -0.09336853 C109.59279075 -0.08775048 113.07762342 -0.07519492 116.5625 -0.0625 C118.91861887 -0.05748733 121.27473874 -0.05292402 123.63085938 -0.04882812 C129.42059464 -0.03777519 135.21029281 -0.02101951 141 0 C134.70781089 9.50919407 134.70781089 9.50919407 131.80859375 13.40234375 C131.26332031 14.13775391 130.71804688 14.87316406 130.15625 15.63085938 C129.5890625 16.39205078 129.021875 17.15324219 128.4375 17.9375 C123.74988572 24.26229591 119.09689384 30.60895536 114.5 37 C109.47028614 43.98830848 104.37852179 50.92841695 99.26123047 57.8527832 C93.1086532 66.18789175 87.04752996 74.58849088 81 83 C85.39247681 90.30017272 90.24313607 97.10614551 95.38598633 103.88720703 C98.6346671 108.17278654 101.82555938 112.4891246 104.9375 116.875 C105.33646484 117.43711182 105.73542969 117.99922363 106.14648438 118.57836914 C106.55447266 119.15321045 106.96246094 119.72805176 107.3828125 120.3203125 C110.33569091 124.48067079 113.32330768 128.6156898 116.3125 132.75 C116.8580957 133.50490723 117.40369141 134.25981445 117.96582031 135.03759766 C119.64356561 137.35862608 121.32171566 139.67936132 123 142 C126.8229266 147.28613128 130.6443928 152.57329998 134.45996094 157.86474609 C135.48603598 159.28739231 136.51272814 160.70959363 137.54003906 162.13134766 C138.96659273 164.10668305 140.3900118 166.0842358 141.8125 168.0625 C142.23942139 168.65256836 142.66634277 169.24263672 143.10620117 169.85058594 C146 173.88550712 146 173.88550712 146 175 C138.94001652 175.3826855 131.8827273 175.64390047 124.81469727 175.82397461 C122.41524382 175.89907361 120.01646936 176.00119958 117.61938477 176.1315918 C98.61854162 177.13870362 98.61854162 177.13870362 93.02175903 173.83078003 C89.50010026 170.6070053 87.41398026 166.61028328 85.2774353 162.39266968 C83.38527603 158.84860596 81.11777121 155.58999464 78.85920715 152.27156067 C76.97921911 149.50666136 75.13989494 146.71854722 73.31054688 143.91992188 C72.69300537 142.97560303 72.07546387 142.03128418 71.43920898 141.05834961 C70.81989502 140.11096924 70.20058105 139.16358887 69.5625 138.1875 C67.69896323 135.34466433 65.8342771 132.50258557 63.96932983 129.66067505 C62.75066035 127.80315739 61.53273398 125.94515195 60.31558228 124.0866394 C55.82412911 117.23382438 51.28729399 110.41231407 46.7013092 103.62236023 C46.24163254 102.93785294 45.78195587 102.25334564 45.30834961 101.5480957 C44.90877548 100.95615921 44.50920135 100.36422272 44.09751892 99.75434875 C42.94219658 97.9076031 41.97419087 95.94838173 41 94 C40.67 120.73 40.34 147.46 40 175 C26.8 175 13.6 175 0 175 C0 117.25 0 59.5 0 0 Z " fill="#168E7F" transform="translate(724,312)"/>
<path d="M0 0 C1.24716797 -0.020625 2.49433594 -0.04125 3.77929688 -0.0625 C21.46624831 -0.13608066 36.94363247 4.54762879 49.828125 17.07421875 C50.87226562 18.15123047 50.87226562 18.15123047 51.9375 19.25 C52.50984375 19.81332031 53.0821875 20.37664062 53.671875 20.95703125 C65.36985612 33.3484494 68.10704617 50.85813211 67.9375 67.25 C67.24098738 86.00162115 61.2601021 103.08980273 47.3671875 116.1875 C29.06435835 131.72430674 6.95680539 132.46067427 -16.0625 131.25 C-21.33074705 130.64755077 -26.15197524 129.25035336 -31.0625 127.25 C-32.11953125 126.82589844 -33.1765625 126.40179688 -34.265625 125.96484375 C-41.70251879 122.61076728 -47.36114913 118.03309067 -53.0625 112.25 C-53.63742187 111.68539062 -54.21234375 111.12078125 -54.8046875 110.5390625 C-66.77923072 97.81998809 -69.37573796 79.65321893 -69.21484375 62.90234375 C-68.50024378 45.77026766 -63.31816729 30.14661199 -51.50390625 17.48046875 C-36.79349413 4.04103624 -19.5052744 0.07892878 0 0 Z M-22.80859375 41.2109375 C-26.16779252 46.67355981 -27.67011986 51.97004423 -28.375 58.3125 C-28.45766113 59.04984375 -28.54032227 59.7871875 -28.62548828 60.546875 C-29.58927104 70.7511171 -28.54596431 81.37020312 -23.0625 90.25 C-19.09627702 94.94684301 -14.25103439 99.1467808 -8.0625 100.25 C1.78036069 100.89979924 9.984035 101.2666879 17.82421875 94.66015625 C25.90898255 86.64318921 27.31276568 76.16731988 27.4375 65.25 C27.34861263 55.95865515 26.33596367 46.57326882 20.8125 38.75 C13.18281075 32.11548761 5.77466407 30.22999334 -4.2109375 30.76953125 C-12.16172571 31.76136386 -17.74363754 35.07251295 -22.80859375 41.2109375 Z " fill="#168E7F" transform="translate(1598.0625,358.75)"/>
<path d="M0 0 C10.54915814 7.95337102 15.86288696 16.71329954 18.54490662 29.62283325 C19.10598992 33.78653227 19.13171423 37.83893162 19.11352539 42.03466797 C19.11367142 42.92311905 19.11381744 43.81157013 19.1139679 44.72694397 C19.11327406 47.64871709 19.10550647 50.57042559 19.09765625 53.4921875 C19.09579019 55.52385422 19.09436717 57.55552139 19.09336853 59.58718872 C19.08955815 64.92351533 19.07974051 70.25981455 19.06866455 75.59613037 C19.05841861 81.04585398 19.05386409 86.49558203 19.04882812 91.9453125 C19.03811689 102.63022228 19.02053208 113.31510457 19 124 C6.13 124 -6.74 124 -20 124 C-20.05607422 115.83636719 -20.05607422 115.83636719 -20.11328125 107.5078125 C-20.14358445 104.04424016 -20.17474765 100.58071775 -20.20898438 97.1171875 C-20.2631542 91.62893294 -20.3142698 86.14077714 -20.34643555 80.65234375 C-20.37259081 76.22364372 -20.41307813 71.79527844 -20.46318626 67.36678696 C-20.47977278 65.68369612 -20.49133791 64.00054749 -20.49761391 62.31738663 C-20.46629759 45.56183889 -20.46629759 45.56183889 -28 31 C-32.73265717 27.35949449 -37.96651854 27.37062482 -43.73828125 27.53515625 C-48.95419732 28.27850237 -52.38626721 30.19052335 -56 34 C-61.03213016 41.47561644 -62.0990377 48.57658463 -62.20532227 57.47412109 C-62.21522186 58.19676147 -62.22512146 58.91940186 -62.23532104 59.66394043 C-62.26670923 62.03374036 -62.29160294 64.40356029 -62.31640625 66.7734375 C-62.33699541 68.42396543 -62.35799238 70.07448832 -62.37937927 71.7250061 C-62.4343974 76.05515443 -62.48389546 80.38534873 -62.53222656 84.71557617 C-62.59145536 89.91863499 -62.65757116 95.12161035 -62.72252655 100.32460022 C-62.82028094 108.21634888 -62.90931129 116.10815273 -63 124 C-75.87 124 -88.74 124 -102 124 C-102 82.75 -102 41.5 -102 -1 C-89.13 -1 -76.26 -1 -63 -1 C-62.505 7.415 -62.505 7.415 -62 16 C-60.68 14.47375 -59.36 12.9475 -58 11.375 C-44.42234205 -3.57520503 -18.61925591 -11.73482515 0 0 Z " fill="#168E7F" transform="translate(2070,363)"/>
<path d="M0 0 C1.21236328 0.54333984 1.21236328 0.54333984 2.44921875 1.09765625 C14.43659792 7.10152188 22.52616035 17.05436091 27.3515625 29.48046875 C32.07339956 44.24045583 31 56.66617199 31 73 C4.27 73 -22.46 73 -50 73 C-46.91356089 85.95957676 -46.91356089 85.95957676 -37.90625 94.33984375 C-25.96168148 100.60182837 -8.12975204 99.83587489 4.484375 96 C8.10086624 94.56238857 11.54183242 92.88065486 14.94140625 90.98828125 C17 90 17 90 20 90 C20 99.57 20 109.14 20 119 C5.55165651 124.55705519 -6.60416269 127.54460473 -21.97949219 127.44604492 C-24.00037696 127.43749841 -26.01845094 127.46652064 -28.0390625 127.49804688 C-44.86261032 127.5892114 -61.00355891 123.0090231 -73.4375 111.1875 C-86.69109003 96.94579791 -90.5925687 78.78382583 -90.25 59.70703125 C-88.91519116 39.91431892 -82.64078077 23.38889058 -67.98046875 9.58203125 C-50.48767893 -5.57227291 -21.21349651 -9.93873492 0 0 Z M-42.7109375 29.8671875 C-47.51874929 35.89454179 -49.7223723 41.33423379 -51 49 C-36.15 49 -21.3 49 -6 49 C-6 40.7091872 -6.08337484 34.39730188 -11.71875 28.0703125 C-17.39194181 23.0461723 -22.21770913 22.58089121 -29.703125 22.6640625 C-35.50317223 23.25506257 -38.84462747 25.6477898 -42.7109375 29.8671875 Z " fill="#168E7F" transform="translate(1193,363)"/>
<path d="M0 0 C1.00078583 -0.00592163 1.00078583 -0.00592163 2.02178955 -0.01196289 C13.47488861 -0.04362125 23.76687898 1.39889449 34.875 4.3125 C34.875 14.5425 34.875 24.7725 34.875 35.3125 C30.45399797 34.42829959 27.41260651 33.27440483 23.44921875 31.34765625 C16.6952824 28.63173344 10.45088947 27.97142504 3.25 28 C2.43015625 27.98388672 1.6103125 27.96777344 0.765625 27.95117188 C-5.19658971 27.9463791 -9.55673769 28.90993204 -14.0625 33.125 C-15.60353787 36.29772504 -15.22966 37.99852001 -14.125 41.3125 C-10.917868 44.24441401 -7.83182339 46.08431867 -3.8125 47.6875 C-2.76578125 48.10902344 -1.7190625 48.53054688 -0.640625 48.96484375 C1.84317144 49.91696572 4.32787263 50.84753445 6.828125 51.75390625 C32.89430854 61.21300698 32.89430854 61.21300698 39.25 73.5625 C41.82273363 79.1553992 42.1213247 83.85819543 42.1875 89.9375 C42.23100586 91.23494141 42.23100586 91.23494141 42.27539062 92.55859375 C42.37079387 102.3484347 38.41789929 110.14719033 31.875 117.3125 C18.64077142 129.64505586 0.79065864 131.84313371 -16.5625 131.6875 C-17.85220703 131.69910156 -19.14191406 131.71070313 -20.47070312 131.72265625 C-32.3030551 131.68710587 -42.76061579 129.55946692 -54.125 126.3125 C-54.125 115.7525 -54.125 105.1925 -54.125 94.3125 C-47.40880634 96.55123122 -47.40880634 96.55123122 -44.21484375 97.78515625 C-43.53486328 98.04490234 -42.85488281 98.30464844 -42.15429688 98.57226562 C-40.7550526 99.10923051 -39.35661741 99.6483083 -37.95898438 100.18945312 C-30.94702749 102.85972351 -24.79538789 103.51845062 -17.3125 103.5625 C-16.44818359 103.583125 -15.58386719 103.60375 -14.69335938 103.625 C-8.81456151 103.66049463 -4.44237229 102.8881022 0.875 100.3125 C2.82377669 97.89236671 3.1655637 96.47767734 3.875 93.3125 C2.29622461 88.78667722 -1.02829263 86.50872058 -5.125 84.3125 C-8.76083812 82.88099588 -12.46941023 81.69842243 -16.1875 80.5 C-30.43663771 75.72338323 -45.02638192 70.53545579 -52.125 56.3125 C-54.36187637 51.02533768 -54.49156105 46.14987903 -54.5 40.5 C-54.53673828 39.22286133 -54.53673828 39.22286133 -54.57421875 37.91992188 C-54.62117844 27.64357628 -50.09701914 19.67417291 -43.125 12.3125 C-31.45268763 1.87134431 -14.95650024 0.08075666 0 0 Z " fill="#168E7F" transform="translate(1736.125,358.6875)"/>
<path d="M0 0 C0 12.54 0 25.08 0 38 C9.24 38 18.48 38 28 38 C28 47.24 28 56.48 28 66 C18.76 66 9.52 66 0 66 C0.07415449 73.66859759 0.15713219 81.33606253 0.26245117 89.00415039 C0.29561126 91.61020958 0.32367065 94.21633904 0.34643555 96.82250977 C0.38014489 100.5785911 0.43247112 104.33403355 0.48828125 108.08984375 C0.49467117 109.24645004 0.5010611 110.40305634 0.50764465 111.5947113 C0.64505832 119.2342609 1.20798243 126.3073316 5.9375 132.5625 C13.15566302 135.95061733 20.63773737 134.10350361 28 132 C28 141.57 28 151.14 28 161 C14.88335451 167.55832275 -2.61601492 168.69731196 -16.9375 164.5625 C-25.7557439 160.82261977 -32.06283086 154.25457333 -36.0625 145.65234375 C-39.20176388 136.77084303 -39.26217218 128.44384616 -39.1953125 119.125 C-39.19157672 117.58943873 -39.18873242 116.05387506 -39.18673706 114.51831055 C-39.17914503 110.50044025 -39.15953525 106.48271734 -39.1373291 102.46490479 C-39.11677459 98.35552971 -39.10771491 94.24613055 -39.09765625 90.13671875 C-39.07628461 82.09107107 -39.04113925 74.04557091 -39 66 C-45.6 66 -52.2 66 -59 66 C-59 56.76 -59 47.52 -59 38 C-52.4 38 -45.8 38 -39 38 C-39 28.76 -39 19.52 -39 10 C-34.09004498 8.57090706 -29.17937511 7.1451043 -24.26611328 5.72753906 C-22.59531223 5.24442368 -20.92505823 4.75941217 -19.25537109 4.27246094 C-16.85395685 3.57246511 -14.45065159 2.87933363 -12.046875 2.1875 C-11.30193787 1.96876221 -10.55700073 1.75002441 -9.78948975 1.5246582 C-6.3530415 0.54239234 -3.60661671 0 0 0 Z " fill="#168E7F" transform="translate(1848,324)"/>
<path d="M0 0 C1 1 1 1 1.11352539 4.41821289 C1.11336628 5.93636988 1.10767226 7.45453229 1.09765625 8.97265625 C1.0962413 9.77029892 1.09482635 10.56794159 1.09336853 11.38975525 C1.08775316 13.94737435 1.07519812 16.50490718 1.0625 19.0625 C1.05748698 20.79231645 1.05292373 22.52213426 1.04882812 24.25195312 C1.03777875 28.50133553 1.02050386 32.75065312 1 37 C-0.95541382 36.49239095 -2.91082764 35.9847819 -4.86624146 35.47717285 C-12.60199109 33.74722561 -21.61698245 33.61072813 -28.6875 37.4375 C-35.0119248 41.93368772 -38.07652208 48.62666797 -40 56 C-40.75720538 60.61815449 -41.14150242 65.08439178 -41.20532227 69.76147461 C-41.22526749 71.06229477 -41.24521271 72.36311493 -41.26576233 73.70335388 C-41.28274028 75.103016 -41.29961931 76.50267933 -41.31640625 77.90234375 C-41.3370062 79.34966077 -41.35800341 80.79697219 -41.37937927 82.24427795 C-41.43428626 86.03353302 -41.4838324 89.82283952 -41.53222656 93.61218262 C-41.59155857 98.16950288 -41.65761203 102.72673018 -41.72252655 107.28397369 C-41.8201407 114.1892585 -41.90926656 121.09460593 -42 128 C-54.87 128 -67.74 128 -81 128 C-81 86.75 -81 45.5 -81 3 C-68.13 3 -55.26 3 -42 3 C-41.505 11.415 -41.505 11.415 -41 20 C-40.154375 18.659375 -39.30875 17.31875 -38.4375 15.9375 C-28.35570594 0.99106405 -17.27091144 -1.11720636 0 0 Z " fill="#168E7F" transform="translate(1327,359)"/>
<path d="M0 0 C24.09 0 48.18 0 73 0 C73 25.08 73 50.16 73 76 C48.91 76 24.82 76 0 76 C0 50.92 0 25.84 0 0 Z " fill="#168E7F" transform="translate(529,178)"/>
<path d="M0 0 C12.87 0 25.74 0 39 0 C39 41.25 39 82.5 39 125 C26.13 125 13.26 125 0 125 C0 83.75 0 42.5 0 0 Z " fill="#168E7F" transform="translate(1897,362)"/>
<path d="M0 0 C4.43400121 2.75653615 7.64867008 6.38351023 9.3125 11.375 C10.12417606 19.36846803 10.33647394 26.13969123 5.1171875 32.59765625 C-0.24401123 37.8776247 -5.23013534 38.75627664 -12.6875 38.875 C-19.74952727 38.78675502 -24.98957625 37.86270587 -30.19921875 32.94921875 C-34.97612115 27.65219517 -36.16559436 22.8924632 -36 15.9375 C-35.32566725 10.40797146 -32.89663585 6.17518371 -28.75 2.5 C-21.02457766 -2.86049714 -8.72782239 -4.01279191 0 0 Z " fill="#168E7F" transform="translate(1929.6875,303.625)"/>
<path d="M0 0 C10.56 0 21.12 0 32 0 C32 10.89 32 21.78 32 33 C21.44 33 10.88 33 0 33 C0 22.11 0 11.22 0 0 Z " fill="#168E7F" transform="translate(687,35)"/>
</svg>
