<svg xmlns="http://www.w3.org/2000/svg" width="24" height="24" viewBox="0 0 24 24"><path d="M22 13V7c0-1.654-1.346-3-3-3H5C3.346 4 2 5.346 2 7v10c0 1.654 1.346 3 3 3h14c1.654 0 3-1.346 3-3z" style="fill:#1e4b92;fill-rule:evenodd"/><circle cx="11.174" cy="12.116" r="5.385" style="fill:#1e4b92"/><path d="M11.174 17.566c-3.072 0-5.616-2.477-5.616-5.516 0-3.304 2.544-5.616 5.616-5.616h1.453c3.04 0 5.814 2.28 5.814 5.616 0 3.039-2.774 5.516-5.814 5.516zm.033-10.67c-2.808 0-5.087 2.28-5.087 5.088s2.28 5.087 5.087 5.087 5.087-2.28 5.087-5.087a5.09 5.09 0 0 0-5.087-5.088m-1.156 8.127V8.977a3.23 3.23 0 0 0-2.081 3.007 3.24 3.24 0 0 0 2.08 3.039Zm4.36-3.006a3.2 3.2 0 0 0-2.08-3.006v6.045c1.221-.496 2.08-1.685 2.08-3.04Z" style="fill:#fff"/></svg>