<svg xmlns="http://www.w3.org/2000/svg" width="24" height="24" fill="none" viewBox="0 0 24 24"><path fill="#F1F1F1" d="M22 13V7c0-1.654-1.346-3-3-3H5C3.346 4 2 5.346 2 7v10c0 1.654 1.346 3 3 3h14c1.654 0 3-1.346 3-3z"/><path fill="#5086EB" d="M15.93 16.36c1.081-1.001 1.7-2.48 1.7-4.229q-.001-.63-.107-1.209H12.12v2.216h3.112a2.67 2.67 0 0 1-1.155 1.785zm0 0"/><path fill="#58A45C" d="M14.078 14.923c-.516.347-1.18.551-1.957.551-1.5 0-2.773-1.011-3.23-2.374l-1.91 1.483a5.75 5.75 0 0 0 5.14 3.167c1.553 0 2.858-.51 3.808-1.39z"/><path fill="#F0BB42" d="M8.712 12c0-.382.064-.752.18-1.1l-1.91-1.483A5.7 5.7 0 0 0 6.37 12c0 .93.22 1.806.611 2.583l1.91-1.482a3.5 3.5 0 0 1-.18-1.1Z"/><path fill="#D74F3F" d="M12.121 6.25a5.75 5.75 0 0 0-5.14 3.167l1.91 1.483c.457-1.363 1.73-2.374 3.23-2.374.848 0 1.608.292 2.207.863l1.642-1.64c-.997-.93-2.297-1.499-3.849-1.499"/></svg>