<svg xmlns="http://www.w3.org/2000/svg" width="24" height="24" fill="none" viewBox="0 0 24 24"><path fill="#F1F1F1" fill-rule="evenodd" d="M22 13V7c0-1.654-1.346-3-3-3H5C3.346 4 2 5.346 2 7v10c0 1.654 1.346 3 3 3h14c1.654 0 3-1.346 3-3z" clip-rule="evenodd"/><path fill="#253B80" fill-rule="evenodd" d="m9.804 17.593.208-1.32-.463-.012H7.336l1.538-9.748A.13.13 0 0 1 9 6.407h3.73c1.238 0 2.093.257 2.54.766.208.24.342.488.406.762.067.288.068.632.002 1.052l-.004.03v.27l.21.118q.262.139.422.323c.18.203.295.463.344.77.051.316.034.693-.049 1.118a4 4 0 0 1-.458 1.266 2.6 2.6 0 0 1-.726.795 2.9 2.9 0 0 1-.977.441 5 5 0 0 1-1.222.142h-.29a.88.88 0 0 0-.863.736l-.023.12-.367 2.328-.016.085c-.004.027-.012.041-.024.05a.06.06 0 0 1-.038.014z" clip-rule="evenodd"/><path fill="#179BD7" fill-rule="evenodd" d="M16.08 9.049q-.017.107-.039.219c-.49 2.525-2.175 3.398-4.323 3.398h-1.095a.53.53 0 0 0-.525.449l-.56 3.554-.159 1.007a.28.28 0 0 0 .276.324h1.941c.23 0 .425-.167.462-.394l.018-.099.365-2.318.024-.128a.47.47 0 0 1 .462-.394h.29c1.881 0 3.352-.764 3.783-2.973.18-.923.087-1.694-.389-2.236a1.9 1.9 0 0 0-.53-.409" clip-rule="evenodd"/><path fill="#222D65" fill-rule="evenodd" d="M15.566 8.843a5 5 0 0 0-.232-.06 6 6 0 0 0-.247-.046 6 6 0 0 0-.964-.07h-2.924a.46.46 0 0 0-.461.394l-.622 3.94-.018.114a.53.53 0 0 1 .526-.45h1.094c2.149 0 3.832-.873 4.324-3.398l.039-.218a2.5 2.5 0 0 0-.406-.17z" clip-rule="evenodd"/><path fill="#253B80" fill-rule="evenodd" d="M10.738 9.062a.47.47 0 0 1 .46-.394h2.925q.52-.001.965.07a4 4 0 0 1 .478.106q.056.016.11.034.217.073.405.17c.146-.932-.001-1.568-.506-2.143C15.018 6.27 14.014 6 12.729 6h-3.73a.534.534 0 0 0-.527.45L6.919 16.3a.32.32 0 0 0 .316.37h2.303l.578-3.67.622-3.94Z" clip-rule="evenodd"/></svg>